<?xml version="1.0" encoding="utf-8"?>
<!-- Generator: Adobe Illustrator 17.0.0, SVG Export Plug-In . SVG Version: 6.00 Build 0)  -->
<!DOCTYPE svg PUBLIC "-//W3C//DTD SVG 1.1//EN" "http://www.w3.org/Graphics/SVG/1.1/DTD/svg11.dtd">
<svg version="1.1" id="Laag_1" xmlns="http://www.w3.org/2000/svg" xmlns:xlink="http://www.w3.org/1999/xlink" x="0px" y="0px"
	 width="865px" height="565px" viewBox="0 0 865 565" enable-background="new 0 0 865 565" xml:space="preserve">
<g>
	<g>
		<rect x="722.013" y="255.5" fill="#F97B62" width="57.004" height="29.282"/>
	</g>
	<g>
		<circle fill="#F97B62" cx="722.013" cy="270.141" r="14.641"/>
	</g>
	<g>
		<circle fill="#F97B62" cx="779.017" cy="270.141" r="14.641"/>
	</g>
	<g>
		<circle fill="#F97B62" cx="756.083" cy="250.451" r="14.641"/>
	</g>
	<g>
		<circle fill="#F97B62" cx="733.37" cy="253.649" r="14.641"/>
	</g>
	<g>
		<circle fill="#F97B62" cx="744.091" cy="238.587" r="8.667"/>
	</g>
	<g>
		<circle fill="#F97B62" cx="775.387" cy="253.649" r="8.667"/>
	</g>
</g>
<g>
	<g>
		<rect x="147.991" y="106.405" fill="#F97B62" width="78.987" height="40.574"/>
	</g>
	<g>
		<circle fill="#F97B62" cx="147.991" cy="126.693" r="20.287"/>
	</g>
	<g>
		<circle fill="#F97B62" cx="226.978" cy="126.693" r="20.287"/>
	</g>
	<g>
		<circle fill="#F97B62" cx="195.199" cy="99.41" r="20.287"/>
	</g>
	<g>
		<circle fill="#F97B62" cx="163.728" cy="103.84" r="20.287"/>
	</g>
	<g>
		<circle fill="#F97B62" cx="178.582" cy="82.97" r="12.009"/>
	</g>
	<g>
		<circle fill="#F97B62" cx="221.948" cy="103.84" r="12.009"/>
	</g>
</g>
<g>
	<g>
		<polygon fill="#99FFFF" points="249.117,328.495 264.714,334.107 257.935,347.227 245.982,342.926 		"/>
	</g>
	<g>
		<polygon fill="#99FFFF" points="300.301,235.21 284.704,229.598 291.483,216.479 303.436,220.78 		"/>
	</g>
	<g>
		<polygon fill="#99FFFF" points="228.067,256.26 222.455,271.858 209.335,265.079 213.636,253.126 		"/>
	</g>
	<g>
		<polygon fill="#99FFFF" points="321.352,307.445 326.964,291.848 340.083,298.627 335.782,310.58 		"/>
	</g>
	<g>
		<path fill="#99FFFF" d="M256.24,333.178c28.331,10.195,59.562-4.508,69.757-32.839s-4.508-59.562-32.839-69.757
			c-28.331-10.195-59.562,4.508-69.757,32.839C213.207,291.752,227.909,322.983,256.24,333.178z M270.322,272.601
			c5.117-2.409,11.217-0.213,13.626,4.903c2.409,5.117,0.213,11.217-4.903,13.626c-5.116,2.409-11.217,0.213-13.626-4.903
			C263.01,281.11,265.205,275.009,270.322,272.601z"/>
	</g>
	<g>
		<polygon fill="#99FFFF" points="223.632,296.737 230.692,311.735 216.622,316.218 211.211,304.725 		"/>
	</g>
	<g>
		<polygon fill="#99FFFF" points="325.787,266.968 318.726,251.971 332.797,247.487 338.207,258.981 		"/>
	</g>
	<g>
		<polygon fill="#99FFFF" points="259.825,230.775 244.827,237.835 240.344,223.765 251.837,218.355 		"/>
	</g>
	<g>
		<polygon fill="#99FFFF" points="289.594,332.93 304.591,325.87 309.075,339.94 297.581,345.351 		"/>
	</g>
</g>
<g>
	<g>
		<polygon fill="#85DADA" points="588.623,288.171 599.364,292.036 594.696,301.07 586.465,298.109 		"/>
	</g>
	<g>
		<polygon fill="#85DADA" points="623.871,223.931 613.13,220.066 617.799,211.031 626.03,213.993 		"/>
	</g>
	<g>
		<polygon fill="#85DADA" points="574.127,238.427 570.262,249.168 561.228,244.5 564.19,236.268 		"/>
	</g>
	<g>
		<polygon fill="#85DADA" points="638.367,273.675 642.232,262.934 651.267,267.602 648.305,275.834 		"/>
	</g>
	<g>
		<path fill="#85DADA" d="M593.529,291.396c19.51,7.02,41.017-3.104,48.038-22.614s-3.104-41.017-22.614-48.038
			s-41.017,3.104-48.038,22.614S574.019,284.375,593.529,291.396z M603.226,249.679c3.524-1.659,7.725-0.147,9.383,3.376
			c1.659,3.524,0.147,7.725-3.376,9.383c-3.523,1.659-7.724,0.147-9.383-3.376C598.19,255.539,599.702,251.338,603.226,249.679z"/>
	</g>
	<g>
		<polygon fill="#85DADA" points="571.073,266.301 575.935,276.629 566.245,279.717 562.519,271.802 		"/>
	</g>
	<g>
		<polygon fill="#85DADA" points="641.421,245.801 636.559,235.473 646.249,232.385 649.975,240.3 		"/>
	</g>
	<g>
		<polygon fill="#85DADA" points="595.997,220.877 585.669,225.739 582.581,216.049 590.496,212.323 		"/>
	</g>
	<g>
		<polygon fill="#85DADA" points="616.497,291.225 626.825,286.363 629.913,296.053 621.998,299.779 		"/>
	</g>
</g>
<g>
	<g>
		<polygon fill="#F97B62" points="604.375,152.656 613.863,148.566 621.145,168.507 613.874,171.642 		"/>
	</g>
	<g>
		<polygon fill="#F97B62" points="597.486,110.575 587.998,114.665 580.716,94.723 587.987,91.589 		"/>
	</g>
	<g>
		<polygon fill="#F97B62" points="579.89,135.06 583.98,144.548 564.039,151.83 560.904,144.559 		"/>
	</g>
	<g>
		<polygon fill="#F97B62" points="621.971,128.17 617.881,118.683 637.823,111.401 640.957,118.672 		"/>
	</g>
	<g>
		<polygon fill="#F97B62" points="588.488,148.929 598.089,152.746 589.138,171.996 581.78,169.071 		"/>
	</g>
	<g>
		<polygon fill="#F97B62" points="613.373,114.301 603.772,110.485 612.723,91.235 620.081,94.16 		"/>
	</g>
	<g>
		<polygon fill="#F97B62" points="583.617,119.173 579.8,128.774 560.55,119.822 563.475,112.465 		"/>
	</g>
	<g>
		<polygon fill="#F97B62" points="618.244,144.057 622.061,134.456 641.311,143.408 638.386,150.766 		"/>
	</g>
	<g>
		<path fill="#F97B62" d="M611.514,156.165c13.549-5.841,19.798-21.56,13.957-35.109s-21.56-19.798-35.109-13.957
			c-13.549,5.841-19.798,21.56-13.957,35.109C582.245,155.757,597.964,162.006,611.514,156.165z M593.554,128.703
			c1.617-4.069,6.227-6.056,10.295-4.438c4.069,1.617,6.056,6.227,4.438,10.295c-1.617,4.068-6.227,6.055-10.295,4.438
			C593.923,137.381,591.936,132.772,593.554,128.703z"/>
	</g>
</g>
<g>
	<g>
		<polygon fill="#F97B62" points="331.124,404.884 339.96,401.075 346.741,419.646 339.97,422.565 		"/>
	</g>
	<g>
		<polygon fill="#F97B62" points="324.708,365.695 315.872,369.504 309.09,350.933 315.862,348.014 		"/>
	</g>
	<g>
		<polygon fill="#F97B62" points="308.321,388.497 312.13,397.333 293.559,404.115 290.64,397.343 		"/>
	</g>
	<g>
		<polygon fill="#F97B62" points="347.51,382.081 343.701,373.245 362.272,366.464 365.191,373.235 		"/>
	</g>
	<g>
		<polygon fill="#F97B62" points="316.329,401.413 325.27,404.968 316.934,422.895 310.081,420.171 		"/>
	</g>
	<g>
		<polygon fill="#F97B62" points="339.503,369.165 330.562,365.611 338.898,347.684 345.75,350.408 		"/>
	</g>
	<g>
		<polygon fill="#F97B62" points="311.792,373.702 308.237,382.643 290.31,374.307 293.034,367.455 		"/>
	</g>
	<g>
		<polygon fill="#F97B62" points="344.04,396.876 347.594,387.935 365.521,396.271 362.797,403.124 		"/>
	</g>
	<g>
		<path fill="#F97B62" d="M337.771,408.152c12.618-5.439,18.438-20.078,12.998-32.696c-5.439-12.618-20.078-18.438-32.696-12.998
			c-12.618,5.439-18.438,20.078-12.998,32.696C310.515,407.772,325.153,413.591,337.771,408.152z M321.046,382.578
			c1.506-3.789,5.799-5.639,9.588-4.133s5.639,5.799,4.133,9.588s-5.799,5.639-9.588,4.133
			C321.39,390.659,319.54,386.366,321.046,382.578z"/>
	</g>
</g>
<g>
	<g>
		<polygon fill="#99FFFF" points="554.515,393.668 568.869,399.413 562.118,411.419 551.117,407.016 		"/>
	</g>
	<g>
		<polygon fill="#99FFFF" points="605.301,308.398 590.946,302.652 597.698,290.646 608.698,295.049 		"/>
	</g>
	<g>
		<polygon fill="#99FFFF" points="537.273,325.64 531.527,339.994 519.521,333.243 523.924,322.242 		"/>
	</g>
	<g>
		<polygon fill="#99FFFF" points="622.543,376.425 628.288,362.071 640.294,368.823 635.891,379.823 		"/>
	</g>
	<g>
		<path fill="#99FFFF" d="M561.001,398.267c26.073,10.436,55.67-2.24,66.107-28.313c10.436-26.073-2.24-55.67-28.313-66.107
			c-26.073-10.437-55.67,2.24-66.107,28.313C522.252,358.234,534.928,387.831,561.001,398.267z M576.123,342.264
			c4.849-2.077,10.463,0.171,12.54,5.019c2.077,4.849-0.171,10.463-5.019,12.54c-4.849,2.077-10.463-0.171-12.54-5.019
			C569.027,349.955,571.274,344.34,576.123,342.264z"/>
	</g>
	<g>
		<polygon fill="#99FFFF" points="531.805,363.225 537.892,377.437 524.629,381.153 519.964,370.261 		"/>
	</g>
	<g>
		<polygon fill="#99FFFF" points="628.011,338.841 621.923,324.628 635.187,320.912 639.852,331.804 		"/>
	</g>
	<g>
		<polygon fill="#99FFFF" points="567.716,302.93 553.503,309.017 549.787,295.754 560.679,291.089 		"/>
	</g>
	<g>
		<polygon fill="#99FFFF" points="592.1,399.135 606.312,393.048 610.028,406.312 599.136,410.977 		"/>
	</g>
	<g>
		<g>
			<path fill="#99FFFF" d="M576.658,365.275l-7.069,30.98c7.316,1.679,14.742,1.504,21.711-0.269l-7.804-30.791
				C581.3,365.753,578.965,365.804,576.658,365.275z"/>
		</g>
		<g>
			<path fill="#99FFFF" d="M567.538,358.806l-26.895,16.902c3.822,6.092,9.075,11.343,15.53,15.176l16.26-27.301
				C570.399,362.375,568.743,360.727,567.538,358.806z"/>
		</g>
		<g>
			<path fill="#99FFFF" d="M583.153,336.79l7.068-30.98c-7.32-1.679-14.75-1.502-21.723,0.274l7.804,30.791
				C578.503,336.313,580.843,336.261,583.153,336.79z"/>
		</g>
		<g>
			<path fill="#99FFFF" d="M592.286,343.273l26.895-16.902c-3.822-6.097-9.077-11.351-15.534-15.187l-16.26,27.301
				C589.424,339.696,591.081,341.348,592.286,343.273z"/>
		</g>
		<g>
			<path fill="#99FFFF" d="M565.66,347.809l-30.979-7.068c-1.674,7.315-1.496,14.739,0.28,21.707l30.791-7.804
				C565.19,352.449,565.136,350.115,565.66,347.809z"/>
		</g>
		<g>
			<path fill="#99FFFF" d="M567.344,343.581c1.206-2.038,2.853-3.698,4.772-4.906l-16.902-26.894
				c-6.091,3.825-11.341,9.082-15.171,15.54L567.344,343.581z"/>
		</g>
		<g>
			<path fill="#99FFFF" d="M594.144,354.308l30.98,7.069c1.684-7.317,1.511-14.745-0.259-21.716l-30.79,7.804
				C594.631,349.663,594.677,352.001,594.144,354.308z"/>
		</g>
		<g>
			<path fill="#99FFFF" d="M587.663,363.414l16.902,26.895c6.093-3.818,11.344-9.068,15.18-15.518l-27.3-16.259
				C591.233,360.561,589.584,362.213,587.663,363.414z"/>
		</g>
	</g>
</g>
<g>
	<g>
		<polygon fill="#99FFFF" points="456.661,211.594 471.016,217.34 464.264,229.346 453.264,224.943 		"/>
	</g>
	<g>
		<polygon fill="#99FFFF" points="507.447,126.324 493.093,120.579 499.844,108.573 510.844,112.976 		"/>
	</g>
	<g>
		<polygon fill="#99FFFF" points="439.419,143.566 433.674,157.921 421.668,151.169 426.071,140.169 		"/>
	</g>
	<g>
		<polygon fill="#99FFFF" points="524.689,194.352 530.435,179.998 542.441,186.749 538.038,197.749 		"/>
	</g>
	<g>
		<path fill="#99FFFF" d="M463.147,216.194c26.073,10.436,55.67-2.239,66.107-28.313c10.436-26.073-2.24-55.67-28.313-66.107
			s-55.67,2.239-66.107,28.313S437.074,205.757,463.147,216.194z M478.269,160.19c4.849-2.077,10.463,0.171,12.54,5.019
			c2.077,4.849-0.171,10.463-5.019,12.54c-4.849,2.077-10.463-0.171-12.54-5.019C471.173,167.881,473.42,162.267,478.269,160.19z"/>
	</g>
	<g>
		<polygon fill="#99FFFF" points="433.951,181.151 440.039,195.364 426.775,199.08 422.11,188.188 		"/>
	</g>
	<g>
		<polygon fill="#99FFFF" points="530.157,156.767 524.07,142.555 537.333,138.839 541.998,149.731 		"/>
	</g>
	<g>
		<polygon fill="#99FFFF" points="469.862,120.856 455.649,126.944 451.934,113.68 462.826,109.015 		"/>
	</g>
	<g>
		<polygon fill="#99FFFF" points="494.246,217.062 508.459,210.975 512.174,224.238 501.283,228.903 		"/>
	</g>
	<g>
		<g>
			<path fill="#99FFFF" d="M478.805,183.201l-7.069,30.98c7.316,1.679,14.742,1.504,21.711-0.269l-7.804-30.791
				C483.447,183.68,481.111,183.73,478.805,183.201z"/>
		</g>
		<g>
			<path fill="#99FFFF" d="M469.685,176.733l-26.895,16.902c3.822,6.092,9.075,11.343,15.529,15.176l16.26-27.301
				C472.545,180.301,470.889,178.653,469.685,176.733z"/>
		</g>
		<g>
			<path fill="#99FFFF" d="M485.3,154.716l7.068-30.98c-7.32-1.679-14.75-1.502-21.723,0.274l7.804,30.791
				C480.65,154.239,482.989,154.187,485.3,154.716z"/>
		</g>
		<g>
			<path fill="#99FFFF" d="M494.432,161.199l26.895-16.902c-3.822-6.097-9.077-11.351-15.534-15.187l-16.26,27.301
				C491.57,157.622,493.228,159.274,494.432,161.199z"/>
		</g>
		<g>
			<path fill="#99FFFF" d="M467.806,165.736l-30.979-7.068c-1.674,7.315-1.496,14.739,0.28,21.707l30.791-7.804
				C467.336,170.375,467.282,168.041,467.806,165.736z"/>
		</g>
		<g>
			<path fill="#99FFFF" d="M469.49,161.507c1.206-2.038,2.853-3.698,4.772-4.906l-16.902-26.894
				c-6.091,3.825-11.341,9.082-15.171,15.54L469.49,161.507z"/>
		</g>
		<g>
			<path fill="#99FFFF" d="M496.29,172.235l30.98,7.069c1.684-7.317,1.511-14.745-0.259-21.716l-30.79,7.804
				C496.778,167.59,496.823,169.927,496.29,172.235z"/>
		</g>
		<g>
			<path fill="#99FFFF" d="M489.809,181.34l16.902,26.895c6.093-3.818,11.344-9.068,15.18-15.518l-27.3-16.259
				C493.38,178.487,491.73,180.139,489.809,181.34z"/>
		</g>
	</g>
</g>
<g>
	<g>
		
			<rect x="136.507" y="349.57" transform="matrix(-0.9631 -0.2691 0.2691 -0.9631 263.2397 780.0341)" fill="#99FFFF" width="97.152" height="44.808"/>
	</g>
	<g>
		<circle fill="#85DADA" cx="135.07" cy="370.412" r="34.349"/>
	</g>
	<g>
		<circle fill="#85DADA" cx="228.638" cy="396.56" r="34.349"/>
	</g>
	<g>
		
			<rect x="129.452" y="352.327" transform="matrix(0.2691 -0.9631 0.9631 0.2691 -258.0362 400.8365)" fill="#F97B62" width="11.247" height="36.201"/>
	</g>
	<g>
		
			<rect x="129.432" y="352.318" transform="matrix(0.9631 0.2691 -0.2691 0.9631 104.6626 -22.6795)" fill="#F97B62" width="11.247" height="36.201"/>
	</g>
	<g>
		<circle fill="#F97B62" cx="238.077" cy="391.245" r="6.238"/>
	</g>
	<g>
		<circle fill="#F97B62" cx="221.118" cy="395.013" r="6.238"/>
	</g>
	<g>
		
			<rect x="172.792" y="377.038" transform="matrix(-0.9631 -0.2691 0.2691 -0.9631 246.329 790.8973)" fill="#F97B62" width="9.161" height="3.054"/>
	</g>
	<g>
		
			<rect x="183.68" y="380.08" transform="matrix(-0.9631 -0.2691 0.2691 -0.9631 266.8853 799.7986)" fill="#F97B62" width="9.161" height="3.054"/>
	</g>
</g>
<g>
	<g>
		<circle fill="#85DADA" cx="646.937" cy="466.824" r="28.262"/>
	</g>
	<g>
		<circle fill="#5C8F8F" cx="660.316" cy="506.13" r="28.262"/>
	</g>
	<g>
		
			<rect x="625.372" y="465.76" transform="matrix(-0.9467 0.3222 -0.3222 -0.9467 1429.1666 736.5036)" fill="#5C8F8F" width="56.526" height="41.522"/>
	</g>
	<g>
		<polygon fill="#99FFFF" points="620.504,476.877 619.859,474.984 645.669,466.2 636.883,440.392 638.775,439.747 648.206,467.448 
					"/>
	</g>
	<g>
		
			<rect x="643.196" y="457.213" transform="matrix(-0.9467 0.3222 -0.3222 -0.9467 1409.8134 700.3995)" fill="#F97B62" width="7.499" height="19.311"/>
	</g>
</g>
<g>
	<g>
		<g>
			<path fill="#70B4B4" d="M570.503,519.791c-0.075,2.749-2.386,4.952-5.136,4.896l-246.93-5.054
				c-2.749-0.056-4.941-2.352-4.869-5.101l1.723-66.353c0.071-2.749,2.379-5.049,5.129-5.112l247.342-5.601
				c2.749-0.062,4.937,2.136,4.862,4.885L570.503,519.791z"/>
		</g>
	</g>
	<g>
		<g>
			<rect x="320.26" y="448.13" fill="#85DADA" width="12.441" height="11.849"/>
		</g>
		<g>
			<rect x="334.8" y="448.13" fill="#85DADA" width="12.441" height="11.849"/>
		</g>
		<g>
			<rect x="349.339" y="448.13" fill="#85DADA" width="12.441" height="11.849"/>
		</g>
		<g>
			<rect x="363.878" y="448.13" fill="#85DADA" width="12.441" height="11.849"/>
		</g>
		<g>
			<rect x="378.417" y="448.13" fill="#85DADA" width="12.441" height="11.849"/>
		</g>
		<g>
			<rect x="392.956" y="448.13" fill="#85DADA" width="12.441" height="11.849"/>
		</g>
		<g>
			<rect x="407.495" y="448.13" fill="#85DADA" width="12.441" height="11.849"/>
		</g>
		<g>
			<rect x="422.035" y="448.13" fill="#85DADA" width="12.441" height="11.849"/>
		</g>
		<g>
			<rect x="436.574" y="448.13" fill="#85DADA" width="12.441" height="11.849"/>
		</g>
	</g>
	<g>
		<g>
			<rect x="464.294" y="448.13" fill="#85DADA" width="12.441" height="11.849"/>
		</g>
		<g>
			<rect x="478.833" y="448.13" fill="#85DADA" width="12.441" height="11.849"/>
		</g>
		<g>
			<rect x="493.373" y="448.13" fill="#85DADA" width="12.441" height="11.849"/>
		</g>
		<g>
			<rect x="522.451" y="448.13" fill="#85DADA" width="12.441" height="11.849"/>
		</g>
		<g>
			<rect x="536.99" y="448.13" fill="#85DADA" width="12.441" height="11.849"/>
		</g>
		<g>
			<rect x="551.529" y="448.13" fill="#85DADA" width="12.441" height="11.849"/>
		</g>
	</g>
	<g>
		<g>
			<rect x="464.294" y="464.521" fill="#85DADA" width="12.441" height="11.849"/>
		</g>
		<g>
			<rect x="478.833" y="464.521" fill="#85DADA" width="12.441" height="11.849"/>
		</g>
		<g>
			<rect x="493.373" y="464.521" fill="#85DADA" width="12.441" height="11.849"/>
		</g>
		<g>
			<rect x="522.451" y="464.521" fill="#85DADA" width="12.441" height="11.849"/>
		</g>
		<g>
			<rect x="536.99" y="464.521" fill="#85DADA" width="12.441" height="11.849"/>
		</g>
		<g>
			<rect x="551.529" y="464.521" fill="#85DADA" width="12.441" height="11.849"/>
		</g>
	</g>
	<g>
		<g>
			<rect x="478.833" y="480.714" fill="#85DADA" width="12.441" height="11.849"/>
		</g>
		<g>
			<rect x="522.451" y="480.714" fill="#85DADA" width="12.441" height="11.849"/>
		</g>
		<g>
			<rect x="536.99" y="480.714" fill="#85DADA" width="12.441" height="11.849"/>
		</g>
		<g>
			<rect x="551.529" y="480.714" fill="#85DADA" width="12.441" height="11.849"/>
		</g>
	</g>
	<g>
		<g>
			<rect x="464.294" y="497.302" fill="#85DADA" width="12.441" height="11.849"/>
		</g>
		<g>
			<rect x="478.833" y="497.302" fill="#85DADA" width="12.441" height="11.849"/>
		</g>
		<g>
			<rect x="493.373" y="497.302" fill="#85DADA" width="12.441" height="11.849"/>
		</g>
		<g>
			<rect x="522.451" y="497.302" fill="#85DADA" width="12.441" height="11.849"/>
		</g>
		<g>
			<rect x="536.99" y="497.302" fill="#85DADA" width="26.98" height="11.849"/>
		</g>
	</g>
	<g>
		<g>
			<rect x="320.26" y="464.521" fill="#85DADA" width="12.441" height="11.849"/>
		</g>
		<g>
			<rect x="334.8" y="464.521" fill="#85DADA" width="12.441" height="11.849"/>
		</g>
		<g>
			<rect x="349.339" y="464.521" fill="#85DADA" width="12.441" height="11.849"/>
		</g>
		<g>
			<rect x="363.878" y="464.521" fill="#85DADA" width="12.441" height="11.849"/>
		</g>
		<g>
			<rect x="378.417" y="464.521" fill="#85DADA" width="12.441" height="11.849"/>
		</g>
		<g>
			<rect x="392.956" y="464.521" fill="#85DADA" width="12.441" height="11.849"/>
		</g>
		<g>
			<rect x="407.495" y="464.521" fill="#85DADA" width="12.441" height="11.849"/>
		</g>
		<g>
			<rect x="422.035" y="464.521" fill="#85DADA" width="12.441" height="11.849"/>
		</g>
		<g>
			<rect x="436.574" y="464.521" fill="#85DADA" width="12.441" height="11.849"/>
		</g>
	</g>
	<g>
		<g>
			<rect x="320.26" y="480.714" fill="#85DADA" width="12.441" height="11.849"/>
		</g>
		<g>
			<rect x="334.8" y="480.714" fill="#85DADA" width="12.441" height="11.849"/>
		</g>
		<g>
			<rect x="349.339" y="480.714" fill="#85DADA" width="12.441" height="11.849"/>
		</g>
		<g>
			<rect x="363.878" y="480.714" fill="#85DADA" width="12.441" height="11.849"/>
		</g>
		<g>
			<rect x="378.417" y="480.714" fill="#85DADA" width="12.441" height="11.849"/>
		</g>
		<g>
			<rect x="392.956" y="480.714" fill="#85DADA" width="12.441" height="11.849"/>
		</g>
		<g>
			<rect x="407.495" y="480.714" fill="#85DADA" width="12.441" height="11.849"/>
		</g>
		<g>
			<rect x="422.035" y="480.714" fill="#85DADA" width="12.441" height="11.849"/>
		</g>
		<g>
			<rect x="436.574" y="480.714" fill="#85DADA" width="12.441" height="11.849"/>
		</g>
	</g>
	<g>
		<g>
			<rect x="320.26" y="497.302" fill="#85DADA" width="12.441" height="11.849"/>
		</g>
		<g>
			<rect x="334.8" y="497.302" fill="#85DADA" width="12.441" height="11.849"/>
		</g>
		<g>
			<rect x="349.339" y="497.302" fill="#85DADA" width="70.598" height="11.849"/>
		</g>
		<g>
			<rect x="422.035" y="497.302" fill="#85DADA" width="12.441" height="11.849"/>
		</g>
		<g>
			<rect x="436.574" y="497.302" fill="#85DADA" width="12.441" height="11.849"/>
		</g>
	</g>
</g>
<g>
	<g>
		<g>
			<path fill="#F97B62" d="M715.907,389.001c-0.005-5.5-4.484-10.473-9.954-11.052l-71.055-7.517
				c-5.469-0.579-11.419,3.199-13.221,8.396l-8.127,23.433c-1.802,5.196,1.207,9.827,6.688,10.291l85.734,7.251
				c5.48,0.464,9.96-3.657,9.955-9.157L715.907,389.001z"/>
		</g>
	</g>
	<g enable-background="new    ">
		<g>
			<path fill="#85DADA" d="M638.173,402.314h-1.567v-6.34h-7.096v6.34h-1.566v-13.474h1.566v5.732h7.096v-5.732h1.567V402.314z"/>
		</g>
		<g>
			<path fill="#85DADA" d="M647.996,402.314h-1.566v-12.082h-4.267v-1.392h10.101v1.392h-4.268V402.314z"/>
		</g>
		<g>
			<path fill="#85DADA" d="M660.419,402.314h-1.566v-12.082h-4.267v-1.392h10.101v1.392h-4.268V402.314z"/>
		</g>
		<g>
			<path fill="#85DADA" d="M677.238,392.768c0,1.363-0.466,2.412-1.396,3.146s-2.263,1.102-3.995,1.102h-1.585v5.299h-1.566v-13.474
				h3.492C675.555,388.841,677.238,390.149,677.238,392.768z M670.262,395.67h1.41c1.389,0,2.393-0.224,3.014-0.673
				c0.62-0.448,0.931-1.167,0.931-2.156c0-0.891-0.292-1.555-0.876-1.99c-0.583-0.437-1.492-0.655-2.728-0.655h-1.751V395.67z"/>
		</g>
		<g>
			<path fill="#85DADA" d="M681.588,393.2c0-0.829,0.363-1.244,1.088-1.244c0.756,0,1.134,0.415,1.134,1.244
				c0,0.399-0.102,0.707-0.305,0.922c-0.202,0.215-0.479,0.322-0.829,0.322c-0.313,0-0.573-0.097-0.778-0.29
				C681.691,393.961,681.588,393.643,681.588,393.2z M681.588,401.338c0-0.412,0.094-0.724,0.281-0.936s0.456-0.318,0.807-0.318
				c0.356,0,0.634,0.106,0.834,0.318c0.199,0.212,0.3,0.523,0.3,0.936c0,0.399-0.102,0.706-0.305,0.921
				c-0.202,0.216-0.479,0.323-0.829,0.323c-0.313,0-0.573-0.097-0.778-0.291C681.691,402.098,681.588,401.78,681.588,401.338z"/>
		</g>
		<g>
			<path fill="#85DADA" d="M693.929,388.841l-5.022,13.474h-1.529l5.022-13.474H693.929z"/>
		</g>
		<g>
			<path fill="#85DADA" d="M702.84,388.841l-5.022,13.474h-1.529l5.022-13.474H702.84z"/>
		</g>
	</g>
</g>
<g>
	<g>
		<g>
			<path fill="#70B4B4" d="M741.712,306.725c-1.465-5.301-7.122-10.253-12.571-11.005l-66.499-9.172
				c-5.448-0.751-9.906,3.134-9.906,8.634v50.58c0,5.5,4.392,10.98,9.76,12.178l89.751,20.025c5.368,1.198,8.561-2.16,7.096-7.461
				L741.712,306.725z"/>
		</g>
	</g>
	<g enable-background="new    ">
		<g>
			<path fill="#5C8F8F" d="M681.659,321.916c0,2.345-0.732,4.139-2.198,5.381s-3.551,1.863-6.254,1.863h-1.982v7.752h-4.621v-21.794
				h6.961c2.644,0,4.654,0.568,6.03,1.707C680.972,317.963,681.659,319.66,681.659,321.916z M671.225,325.374h1.521
				c1.421,0,2.484-0.281,3.19-0.842c0.705-0.562,1.059-1.379,1.059-2.452c0-1.084-0.296-1.884-0.888-2.4
				c-0.591-0.517-1.518-0.775-2.78-0.775h-2.102V325.374z"/>
		</g>
		<g>
			<path fill="#5C8F8F" d="M706.625,336.912h-4.606v-9.406h-8.631v9.406h-4.621v-21.794h4.621v8.542h8.631v-8.542h4.606V336.912z"/>
		</g>
		<g>
			<path fill="#5C8F8F" d="M730.174,321.916c0,2.345-0.732,4.139-2.198,5.381s-3.551,1.863-6.254,1.863h-1.982v7.752h-4.621v-21.794
				h6.962c2.643,0,4.653,0.568,6.029,1.707C729.486,317.963,730.174,319.66,730.174,321.916z M719.739,325.374h1.521
				c1.421,0,2.484-0.281,3.19-0.842c0.705-0.562,1.059-1.379,1.059-2.452c0-1.084-0.296-1.884-0.888-2.4
				c-0.591-0.517-1.518-0.775-2.78-0.775h-2.102V325.374z"/>
		</g>
	</g>
</g>
<g>
	<g>
		<g>
			<path fill="#5C8F8F" d="M208.377,259.418c-3.499-4.243-10.86-7.842-16.358-7.998l-61.815-1.749
				c-5.498-0.156-10.218,4.212-10.489,9.705l-2.101,42.537c-0.271,5.493,4.005,9.856,9.502,9.694l111.362-3.272
				c5.498-0.161,7.133-3.765,3.633-8.009L208.377,259.418z"/>
		</g>
	</g>
	<g enable-background="new    ">
		<g>
			<path fill="#85DADA" d="M152.293,272.474c-1.579,0-2.801,0.593-3.667,1.779c-0.866,1.186-1.299,2.839-1.299,4.958
				c0,4.411,1.655,6.616,4.966,6.616c1.389,0,3.07-0.348,5.046-1.042v3.518c-1.623,0.677-3.437,1.015-5.438,1.015
				c-2.877,0-5.079-0.873-6.603-2.618c-1.524-1.745-2.287-4.25-2.287-7.516c0-2.056,0.375-3.857,1.123-5.405
				c0.749-1.547,1.824-2.733,3.227-3.558c1.403-0.825,3.046-1.238,4.932-1.238c1.921,0,3.851,0.464,5.79,1.394l-1.353,3.409
				c-0.74-0.352-1.484-0.658-2.232-0.92C153.75,272.605,153.014,272.474,152.293,272.474z"/>
		</g>
		<g>
			<path fill="#85DADA" d="M176.215,283.555c0,1.786-0.643,3.193-1.928,4.222s-3.073,1.542-5.364,1.542
				c-2.11,0-3.978-0.396-5.602-1.19v-3.896c1.335,0.596,2.465,1.015,3.39,1.258c0.924,0.244,1.77,0.365,2.536,0.365
				c0.92,0,1.626-0.176,2.118-0.527c0.491-0.352,0.737-0.875,0.737-1.569c0-0.388-0.108-0.732-0.325-1.035
				c-0.217-0.302-0.534-0.593-0.954-0.872c-0.419-0.28-1.273-0.727-2.563-1.34c-1.209-0.568-2.115-1.114-2.72-1.637
				c-0.604-0.523-1.087-1.132-1.447-1.827c-0.361-0.694-0.541-1.506-0.541-2.436c0-1.75,0.593-3.125,1.779-4.126
				c1.186-1.001,2.825-1.501,4.918-1.501c1.027,0,2.009,0.122,2.942,0.365s1.909,0.586,2.929,1.028l-1.353,3.26
				c-1.056-0.433-1.928-0.735-2.618-0.906c-0.689-0.171-1.369-0.257-2.036-0.257c-0.794,0-1.402,0.185-1.826,0.555
				c-0.424,0.37-0.636,0.853-0.636,1.448c0,0.37,0.085,0.692,0.257,0.967c0.171,0.275,0.444,0.542,0.818,0.798
				c0.374,0.257,1.261,0.719,2.658,1.387c1.85,0.884,3.116,1.771,3.802,2.658C175.873,281.176,176.215,282.266,176.215,283.555z"/>
		</g>
		<g>
			<path fill="#85DADA" d="M194.469,283.555c0,1.786-0.643,3.193-1.928,4.222s-3.073,1.542-5.364,1.542
				c-2.11,0-3.978-0.396-5.602-1.19v-3.896c1.335,0.596,2.465,1.015,3.39,1.258c0.924,0.244,1.77,0.365,2.536,0.365
				c0.92,0,1.626-0.176,2.118-0.527c0.491-0.352,0.737-0.875,0.737-1.569c0-0.388-0.108-0.732-0.325-1.035
				c-0.217-0.302-0.534-0.593-0.954-0.872c-0.419-0.28-1.273-0.727-2.563-1.34c-1.209-0.568-2.115-1.114-2.72-1.637
				c-0.604-0.523-1.087-1.132-1.447-1.827c-0.361-0.694-0.541-1.506-0.541-2.436c0-1.75,0.593-3.125,1.779-4.126
				c1.186-1.001,2.825-1.501,4.918-1.501c1.027,0,2.009,0.122,2.942,0.365s1.909,0.586,2.929,1.028l-1.353,3.26
				c-1.056-0.433-1.928-0.735-2.618-0.906c-0.689-0.171-1.369-0.257-2.036-0.257c-0.794,0-1.402,0.185-1.826,0.555
				c-0.424,0.37-0.636,0.853-0.636,1.448c0,0.37,0.085,0.692,0.257,0.967c0.171,0.275,0.444,0.542,0.818,0.798
				c0.374,0.257,1.261,0.719,2.658,1.387c1.85,0.884,3.116,1.771,3.802,2.658C194.126,281.176,194.469,282.266,194.469,283.555z"/>
		</g>
	</g>
</g>
<g>
	<g>
		<g>
			<path fill="#476969" d="M518.403,45.36c0.786-5.444-3.057-9.538-8.54-9.098L380.43,46.645c-5.482,0.44-8.157,4.919-5.943,9.954
				l15.841,36.029c2.214,5.035,8.525,9.154,14.025,9.154h95.909c5.5,0,10.643-4.454,11.428-9.897L518.403,45.36z"/>
		</g>
	</g>
	<g enable-background="new    ">
		<g>
			<path fill="#70B4B4" d="M403.905,78.142l-1.216-3.994h-6.117l-1.217,3.994h-3.833l5.922-16.848h4.35l5.945,16.848H403.905z
				 M401.839,71.164c-1.125-3.619-1.758-5.666-1.899-6.14s-0.243-0.849-0.304-1.125c-0.252,0.979-0.975,3.401-2.169,7.265H401.839z"
				/>
		</g>
		<g>
			<path fill="#70B4B4" d="M421.418,78.142h-3.5v-7.494c0-0.926-0.164-1.62-0.493-2.083s-0.854-0.694-1.572-0.694
				c-0.979,0-1.688,0.327-2.123,0.981c-0.437,0.654-0.654,1.738-0.654,3.253v6.037h-3.501V65.311h2.675l0.47,1.642h0.195
				c0.391-0.62,0.928-1.088,1.612-1.406c0.685-0.317,1.464-0.476,2.336-0.476c1.492,0,2.624,0.404,3.396,1.21
				c0.773,0.808,1.159,1.973,1.159,3.495V78.142z"/>
		</g>
		<g>
			<path fill="#70B4B4" d="M436.189,65.311v1.779l-2.009,0.517c0.368,0.573,0.552,1.216,0.552,1.928c0,1.377-0.48,2.45-1.44,3.219
				c-0.961,0.77-2.294,1.153-4,1.153l-0.631-0.034l-0.517-0.058c-0.359,0.276-0.539,0.582-0.539,0.919
				c0,0.505,0.643,0.757,1.928,0.757h2.181c1.408,0,2.481,0.303,3.219,0.907s1.107,1.491,1.107,2.662c0,1.5-0.625,2.663-1.876,3.489
				c-1.251,0.826-3.047,1.239-5.389,1.239c-1.79,0-3.158-0.312-4.103-0.936c-0.945-0.623-1.417-1.497-1.417-2.622
				c0-0.773,0.24-1.42,0.723-1.939c0.481-0.521,1.189-0.892,2.123-1.113c-0.359-0.153-0.673-0.403-0.941-0.752
				c-0.268-0.348-0.401-0.717-0.401-1.107c0-0.489,0.142-0.897,0.425-1.223s0.692-0.645,1.228-0.958
				c-0.673-0.291-1.207-0.758-1.601-1.4c-0.395-0.643-0.591-1.399-0.591-2.272c0-1.399,0.455-2.482,1.365-3.247
				c0.91-0.765,2.211-1.148,3.902-1.148c0.359,0,0.786,0.033,1.279,0.098c0.494,0.065,0.81,0.113,0.947,0.143H436.189z
				 M426.285,79.955c0,0.481,0.231,0.86,0.694,1.136s1.111,0.413,1.945,0.413c1.255,0,2.238-0.172,2.949-0.516
				c0.712-0.345,1.067-0.815,1.067-1.412c0-0.482-0.21-0.814-0.631-0.998s-1.071-0.275-1.951-0.275h-1.813
				c-0.643,0-1.18,0.15-1.612,0.453C426.5,79.058,426.285,79.457,426.285,79.955z M427.559,69.511c0,0.696,0.158,1.248,0.476,1.653
				s0.802,0.608,1.452,0.608c0.658,0,1.14-0.203,1.446-0.608c0.306-0.405,0.459-0.957,0.459-1.653c0-1.545-0.636-2.317-1.905-2.317
				C428.202,67.193,427.559,67.966,427.559,69.511z"/>
		</g>
		<g>
			<path fill="#70B4B4" d="M447.391,78.142L446.92,76.5h-0.184c-0.375,0.598-0.906,1.059-1.595,1.384
				c-0.689,0.324-1.474,0.487-2.354,0.487c-1.507,0-2.644-0.403-3.408-1.211c-0.766-0.807-1.147-1.968-1.147-3.483v-8.366h3.5v7.494
				c0,0.926,0.165,1.62,0.494,2.083c0.328,0.463,0.853,0.694,1.572,0.694c0.979,0,1.687-0.327,2.123-0.981
				c0.436-0.653,0.654-1.738,0.654-3.253v-6.037h3.5v12.831H447.391z"/>
		</g>
		<g>
			<path fill="#70B4B4" d="M457.249,78.142h-3.501V60.284h3.501V78.142z"/>
		</g>
		<g>
			<path fill="#70B4B4" d="M469.069,78.142l-0.677-1.744h-0.092c-0.589,0.742-1.195,1.257-1.819,1.543
				c-0.623,0.287-1.437,0.431-2.438,0.431c-1.232,0-2.202-0.352-2.909-1.056c-0.708-0.704-1.062-1.706-1.062-3.007
				c0-1.362,0.476-2.366,1.429-3.013c0.952-0.646,2.389-1.004,4.31-1.073l2.227-0.068v-0.562c0-1.301-0.666-1.951-1.997-1.951
				c-1.025,0-2.23,0.31-3.615,0.93l-1.159-2.364c1.477-0.773,3.114-1.159,4.912-1.159c1.722,0,3.041,0.375,3.959,1.125
				s1.377,1.89,1.377,3.42v8.55H469.069z M468.037,72.196l-1.354,0.046c-1.018,0.031-1.775,0.215-2.272,0.552
				c-0.497,0.336-0.746,0.849-0.746,1.537c0,0.987,0.566,1.48,1.698,1.48c0.812,0,1.46-0.233,1.945-0.7
				c0.486-0.466,0.729-1.086,0.729-1.858V72.196z"/>
		</g>
		<g>
			<path fill="#70B4B4" d="M482.28,65.07c0.474,0,0.868,0.034,1.182,0.103l-0.264,3.282c-0.283-0.076-0.628-0.114-1.033-0.114
				c-1.117,0-1.987,0.287-2.611,0.86c-0.623,0.574-0.935,1.377-0.935,2.41v6.53h-3.501V65.311h2.651l0.517,2.158h0.172
				c0.397-0.72,0.936-1.299,1.612-1.739C480.748,65.29,481.484,65.07,482.28,65.07z"/>
		</g>
		<g>
			<path fill="#70B4B4" d="M485.298,76.5c0-0.643,0.172-1.128,0.517-1.457c0.344-0.329,0.845-0.493,1.503-0.493
				c0.636,0,1.127,0.168,1.475,0.505c0.349,0.337,0.522,0.818,0.522,1.445c0,0.604-0.176,1.081-0.527,1.43
				c-0.353,0.348-0.842,0.521-1.47,0.521c-0.643,0-1.14-0.17-1.491-0.511C485.474,77.601,485.298,77.12,485.298,76.5z"/>
		</g>
		<g>
			<path fill="#70B4B4" d="M491.461,83.788c-0.896,0-1.664-0.096-2.308-0.287v-2.754c0.536,0.145,1.083,0.218,1.642,0.218
				c0.589,0,1.02-0.165,1.291-0.493c0.271-0.329,0.407-0.815,0.407-1.458V65.311h3.501v14.22c0,1.361-0.395,2.412-1.183,3.15
				S492.906,83.788,491.461,83.788z M492.345,61.994c0-1.14,0.635-1.71,1.904-1.71c1.271,0,1.905,0.57,1.905,1.71
				c0,0.543-0.158,0.966-0.476,1.268c-0.318,0.302-0.794,0.453-1.43,0.453C492.979,63.715,492.345,63.142,492.345,61.994z"/>
		</g>
		<g>
			<path fill="#70B4B4" d="M508.618,74.331c0,1.316-0.457,2.318-1.371,3.007c-0.915,0.688-2.282,1.033-4.104,1.033
				c-0.934,0-1.729-0.063-2.387-0.189c-0.658-0.126-1.274-0.312-1.848-0.557v-2.892c0.65,0.306,1.383,0.562,2.197,0.769
				c0.815,0.207,1.532,0.31,2.152,0.31c1.27,0,1.905-0.367,1.905-1.102c0-0.275-0.085-0.499-0.253-0.671
				c-0.168-0.173-0.459-0.367-0.872-0.586c-0.413-0.218-0.964-0.472-1.652-0.763c-0.987-0.413-1.713-0.796-2.175-1.147
				c-0.464-0.353-0.8-0.756-1.011-1.211c-0.21-0.455-0.315-1.016-0.315-1.682c0-1.14,0.442-2.021,1.326-2.646
				c0.883-0.624,2.136-0.935,3.758-0.935c1.546,0,3.049,0.337,4.511,1.01l-1.056,2.525c-0.643-0.275-1.244-0.501-1.802-0.677
				c-0.559-0.176-1.129-0.265-1.71-0.265c-1.033,0-1.55,0.279-1.55,0.838c0,0.314,0.166,0.586,0.499,0.815s1.062,0.569,2.187,1.021
				c1.002,0.405,1.736,0.784,2.203,1.136c0.467,0.353,0.812,0.758,1.033,1.217S508.618,73.696,508.618,74.331z"/>
		</g>
	</g>
</g>
<g>
	<g>
		<g>
			<path fill="#70B4B4" d="M194.048,439.072c-1.819-5.191-7.804-9.29-13.301-9.109l-62.551,2.058
				c-5.497,0.181-8.904,4.695-7.571,10.031l7.413,29.68c1.333,5.336,6.856,8.928,12.274,7.981l63.628-11.115
				c5.418-0.946,8.363-5.968,6.544-11.158L194.048,439.072z"/>
		</g>
	</g>
	<g enable-background="new    ">
		<g>
			<path fill="#5C8F8F" d="M125.022,454.693v5.724h-3.163V445.5h4.346c2.027,0,3.527,0.369,4.5,1.107
				c0.973,0.738,1.459,1.858,1.459,3.361c0,0.878-0.242,1.658-0.725,2.342c-0.483,0.684-1.167,1.22-2.051,1.607
				c2.245,3.354,3.707,5.52,4.388,6.499h-3.511l-3.561-5.724H125.022z M125.022,452.122h1.02c1,0,1.738-0.167,2.214-0.5
				s0.714-0.857,0.714-1.571c0-0.707-0.243-1.211-0.729-1.51c-0.486-0.3-1.24-0.449-2.26-0.449h-0.959V452.122z"/>
		</g>
		<g>
			<path fill="#5C8F8F" d="M142.654,460.417l-0.603-1.551h-0.081c-0.524,0.66-1.063,1.117-1.617,1.372
				c-0.555,0.255-1.277,0.383-2.169,0.383c-1.095,0-1.957-0.312-2.586-0.938s-0.943-1.517-0.943-2.674
				c0-1.21,0.423-2.103,1.27-2.678s2.124-0.893,3.831-0.954l1.979-0.062v-0.5c0-1.156-0.592-1.734-1.775-1.734
				c-0.911,0-1.982,0.275-3.214,0.826l-1.03-2.102c1.312-0.687,2.769-1.03,4.367-1.03c1.53,0,2.703,0.333,3.52,1
				s1.225,1.68,1.225,3.04v7.602H142.654z M141.735,455.132l-1.203,0.041c-0.905,0.027-1.578,0.19-2.021,0.489
				c-0.442,0.3-0.663,0.755-0.663,1.367c0,0.878,0.503,1.316,1.51,1.316c0.721,0,1.298-0.207,1.729-0.622s0.647-0.966,0.647-1.653
				V455.132z"/>
		</g>
		<g>
			<path fill="#5C8F8F" d="M151.642,460.621c-1.34,0-2.393-0.521-3.157-1.562c-0.766-1.04-1.148-2.482-1.148-4.325
				c0-1.871,0.39-3.328,1.168-4.372c0.779-1.045,1.853-1.566,3.22-1.566c1.435,0,2.53,0.558,3.285,1.673h0.103
				c-0.157-0.85-0.235-1.608-0.235-2.274v-3.653h3.122v15.876h-2.388l-0.602-1.479h-0.133
				C154.169,460.06,153.091,460.621,151.642,460.621z M152.734,458.142c0.796,0,1.379-0.231,1.75-0.693
				c0.371-0.463,0.573-1.248,0.607-2.357v-0.337c0-1.224-0.189-2.102-0.566-2.632c-0.378-0.53-0.991-0.796-1.842-0.796
				c-0.694,0-1.233,0.294-1.617,0.883c-0.385,0.588-0.576,1.443-0.576,2.565c0,1.123,0.193,1.965,0.581,2.525
				C151.458,457.861,152.013,458.142,152.734,458.142z"/>
		</g>
		<g>
			<path fill="#5C8F8F" d="M164.865,460.621c-1.34,0-2.393-0.521-3.157-1.562c-0.766-1.04-1.148-2.482-1.148-4.325
				c0-1.871,0.39-3.328,1.168-4.372c0.779-1.045,1.853-1.566,3.22-1.566c1.435,0,2.53,0.558,3.285,1.673h0.103
				c-0.157-0.85-0.235-1.608-0.235-2.274v-3.653h3.122v15.876h-2.388l-0.602-1.479h-0.133
				C167.392,460.06,166.314,460.621,164.865,460.621z M165.957,458.142c0.796,0,1.379-0.231,1.75-0.693
				c0.371-0.463,0.573-1.248,0.607-2.357v-0.337c0-1.224-0.189-2.102-0.566-2.632c-0.378-0.53-0.991-0.796-1.842-0.796
				c-0.694,0-1.233,0.294-1.617,0.883c-0.385,0.588-0.576,1.443-0.576,2.565c0,1.123,0.193,1.965,0.581,2.525
				C164.681,457.861,165.236,458.142,165.957,458.142z"/>
		</g>
		<g>
			<path fill="#5C8F8F" d="M177.588,460.417h-3.111v-15.876h3.111V460.417z"/>
		</g>
		<g>
			<path fill="#5C8F8F" d="M186.015,460.621c-1.836,0-3.271-0.507-4.306-1.521s-1.551-2.448-1.551-4.306
				c0-1.911,0.478-3.389,1.434-4.433c0.956-1.045,2.277-1.566,3.964-1.566c1.612,0,2.867,0.459,3.765,1.377
				c0.898,0.919,1.348,2.188,1.348,3.806v1.511h-7.356c0.033,0.884,0.296,1.574,0.785,2.071c0.49,0.496,1.177,0.744,2.062,0.744
				c0.687,0,1.336-0.071,1.948-0.214s1.252-0.371,1.918-0.684v2.408c-0.544,0.271-1.126,0.474-1.744,0.606
				C187.662,460.555,186.907,460.621,186.015,460.621z M185.577,451.01c-0.66,0-1.177,0.209-1.551,0.628
				c-0.374,0.418-0.589,1.012-0.643,1.78h4.366c-0.014-0.769-0.214-1.362-0.602-1.78C186.76,451.219,186.237,451.01,185.577,451.01z
				"/>
		</g>
	</g>
</g>
<g>
	<g>
		<g>
			<path fill="#334444" d="M734.925,177.288c2.54-4.879,0.119-8.994-5.379-9.146l-105.874-2.918
				c-5.498-0.152-8.634,4.014-6.97,9.256l10.702,33.709c1.664,5.242,7.492,10.084,12.95,10.759l58.55,7.243
				c5.458,0.675,12.002-2.764,14.542-7.642L734.925,177.288z"/>
		</g>
	</g>
	<g enable-background="new    ">
		<g>
			<path fill="#70B4B4" d="M660.393,193.424c0,3.41-0.971,6.021-2.912,7.835c-1.94,1.813-4.744,2.721-8.409,2.721h-5.866v-20.715
				h6.504c3.382,0,6.008,0.893,7.878,2.678C659.457,187.728,660.393,190.222,660.393,193.424z M655.83,193.537
				c0-4.449-1.965-6.673-5.895-6.673h-2.338v13.489h1.885C653.714,200.353,655.83,198.081,655.83,193.537z"/>
		</g>
		<g>
			<path fill="#70B4B4" d="M676.913,187.898c0,1.294-0.393,2.395-1.177,3.301c-0.783,0.907-1.884,1.53-3.301,1.87v0.085
				c1.672,0.208,2.938,0.716,3.797,1.523s1.29,1.896,1.29,3.266c0,1.993-0.723,3.545-2.168,4.654
				c-1.445,1.11-3.51,1.665-6.192,1.665c-2.248,0-4.241-0.373-5.979-1.119v-3.727c0.803,0.406,1.686,0.737,2.649,0.992
				c0.963,0.255,1.917,0.383,2.862,0.383c1.445,0,2.512-0.246,3.202-0.737c0.689-0.491,1.034-1.279,1.034-2.366
				c0-0.973-0.397-1.662-1.19-2.068s-2.06-0.609-3.797-0.609h-1.573v-3.358h1.602c1.605,0,2.779-0.21,3.521-0.631
				c0.741-0.42,1.112-1.141,1.112-2.161c0-1.568-0.982-2.352-2.947-2.352c-0.68,0-1.372,0.113-2.075,0.34
				c-0.704,0.227-1.485,0.619-2.346,1.176l-2.025-3.018c1.889-1.36,4.142-2.04,6.758-2.04c2.145,0,3.838,0.435,5.08,1.304
				S676.913,186.349,676.913,187.898z"/>
		</g>
		<g>
			<path fill="#70B4B4" d="M680.3,201.953c0-0.793,0.212-1.393,0.637-1.799c0.426-0.406,1.044-0.609,1.856-0.609
				c0.784,0,1.391,0.208,1.82,0.623c0.43,0.416,0.646,1.011,0.646,1.785c0,0.746-0.218,1.335-0.652,1.765s-1.039,0.645-1.813,0.645
				c-0.793,0-1.407-0.211-1.842-0.631S680.3,202.719,680.3,201.953z"/>
		</g>
		<g>
			<path fill="#70B4B4" d="M687.908,210.95c-1.105,0-2.055-0.118-2.849-0.354v-3.401c0.662,0.18,1.337,0.27,2.026,0.27
				c0.728,0,1.259-0.203,1.594-0.609c0.336-0.406,0.503-1.006,0.503-1.799v-16.918h4.322v17.556c0,1.681-0.487,2.978-1.46,3.889
				C691.072,210.495,689.693,210.95,687.908,210.95z M688.999,184.044c0-1.407,0.784-2.111,2.352-2.111
				c1.568,0,2.353,0.704,2.353,2.111c0,0.671-0.196,1.193-0.588,1.566c-0.393,0.373-0.98,0.56-1.765,0.56
				C689.783,186.169,688.999,185.461,688.999,184.044z"/>
		</g>
		<g>
			<path fill="#70B4B4" d="M709.09,199.275c0,1.625-0.564,2.862-1.693,3.712c-1.128,0.851-2.817,1.275-5.064,1.275
				c-1.153,0-2.135-0.078-2.947-0.233c-0.812-0.156-1.573-0.385-2.281-0.688v-3.57c0.803,0.378,1.707,0.694,2.713,0.949
				s1.892,0.383,2.657,0.383c1.567,0,2.352-0.454,2.352-1.36c0-0.34-0.104-0.616-0.312-0.829s-0.566-0.453-1.077-0.723
				c-0.51-0.27-1.189-0.583-2.04-0.942c-1.219-0.51-2.113-0.982-2.685-1.417c-0.572-0.434-0.987-0.933-1.247-1.494
				c-0.26-0.562-0.39-1.254-0.39-2.076c0-1.407,0.545-2.496,1.637-3.266c1.091-0.77,2.637-1.155,4.64-1.155
				c1.908,0,3.765,0.416,5.568,1.247l-1.304,3.117c-0.793-0.34-1.535-0.618-2.225-0.836c-0.689-0.217-1.393-0.326-2.11-0.326
				c-1.275,0-1.913,0.345-1.913,1.035c0,0.387,0.205,0.723,0.616,1.006s1.311,0.703,2.699,1.261
				c1.237,0.501,2.145,0.969,2.721,1.402c0.576,0.435,1.001,0.936,1.275,1.502C708.953,197.816,709.09,198.491,709.09,199.275z"/>
		</g>
	</g>
</g>
<g>
	<g>
		<g>
			<path fill="#99FFFF" d="M708.538,67.873c-0.167-5.497-4.755-10.662-10.194-11.478L572.713,37.567
				c-5.439-0.815-10.201,3.007-10.581,8.494l-3.228,46.544c-0.38,5.487,3.619,11.268,8.887,12.846l133.62,40.036
				c5.269,1.579,9.442-1.628,9.275-7.125L708.538,67.873z"/>
		</g>
	</g>
	<g enable-background="new    ">
		<g>
			<path fill="#70B4B4" d="M603.649,93.329h-5.366V82.371h-10.054v10.958h-5.384V67.94h5.384v9.95h10.054v-9.95h5.366V93.329z"/>
		</g>
		<g>
			<path fill="#70B4B4" d="M623.834,93.329h-5.383V72.421h-6.895v-4.48h19.172v4.48h-6.895V93.329z"/>
		</g>
		<g>
			<path fill="#70B4B4" d="M649.368,93.329l-6.112-19.918H643.1c0.22,4.052,0.33,6.755,0.33,8.109v11.809h-4.811V67.94h7.328
				l6.009,19.415h0.104l6.373-19.415h7.328v25.388h-5.019V81.312c0-0.567,0.009-1.222,0.026-1.962s0.096-2.709,0.234-5.904h-0.156
				L654.3,93.329H649.368z"/>
		</g>
		<g>
			<path fill="#70B4B4" d="M676.135,93.329V67.94h5.383v20.943h10.298v4.445H676.135z"/>
		</g>
	</g>
</g>
<g>
	<g>
		<g>
			<path fill="#85DADA" d="M242.717,169.795c-2.822-4.721-9.632-8.583-15.132-8.583h-58.611c-5.5,0-11.789,4.129-13.976,9.176
				l-18.941,43.711c-2.187,5.047,0.492,8.643,5.954,7.993l113.27-13.494c5.461-0.651,7.62-5.045,4.798-9.766L242.717,169.795z"/>
		</g>
	</g>
	<g enable-background="new    ">
		<g>
			<path fill="#99FFFF" d="M159.687,203.647c-0.846,0-1.583-0.089-2.212-0.266v-3.119c0.645,0.161,1.233,0.241,1.765,0.241
				c0.822,0,1.411-0.256,1.765-0.768s0.532-1.312,0.532-2.399v-16.561h3.748v16.537c0,2.063-0.471,3.635-1.414,4.715
				C162.926,203.107,161.532,203.647,159.687,203.647z"/>
		</g>
		<g>
			<path fill="#99FFFF" d="M173.722,198.691c-1.596,0-2.846-0.615-3.748-1.844c-0.902-1.229-1.354-2.939-1.354-5.132
				c0-2.208,0.461-3.933,1.384-5.174s2.187-1.862,3.79-1.862c0.854,0,1.6,0.162,2.236,0.484s1.196,0.822,1.681,1.499h0.097
				l0.326-1.729h3.119v19.462h-3.699v-5.669c0-0.492,0.052-1.169,0.157-2.031h-0.157c-0.396,0.653-0.919,1.148-1.572,1.487
				C175.33,198.521,174.576,198.691,173.722,198.691z M175.04,195.801c0.935,0,1.62-0.268,2.055-0.804
				c0.436-0.536,0.673-1.473,0.714-2.811v-0.447c0-1.451-0.224-2.49-0.671-3.119s-1.167-0.942-2.158-0.942
				c-1.732,0-2.599,1.361-2.599,4.086c0,1.354,0.215,2.365,0.646,3.034C173.458,195.467,174.128,195.801,175.04,195.801z"/>
		</g>
		<g>
			<path fill="#99FFFF" d="M194.684,198.449l-0.496-1.729h-0.193c-0.395,0.629-0.955,1.114-1.681,1.456
				c-0.725,0.343-1.551,0.515-2.478,0.515c-1.588,0-2.785-0.426-3.591-1.275c-0.806-0.851-1.209-2.073-1.209-3.669v-8.813h3.688
				v7.894c0,0.976,0.173,1.706,0.52,2.194c0.347,0.487,0.898,0.731,1.656,0.731c1.031,0,1.777-0.345,2.236-1.034
				c0.459-0.688,0.689-1.831,0.689-3.427v-6.359h3.687v13.515H194.684z"/>
		</g>
		<g>
			<path fill="#99FFFF" d="M207.497,198.691c-2.176,0-3.876-0.601-5.102-1.802c-1.225-1.2-1.837-2.901-1.837-5.102
				c0-2.265,0.566-4.015,1.698-5.252s2.697-1.856,4.696-1.856c1.91,0,3.397,0.544,4.461,1.632c1.063,1.088,1.596,2.591,1.596,4.509
				v1.789h-8.716c0.04,1.048,0.351,1.866,0.931,2.454s1.395,0.883,2.442,0.883c0.813,0,1.583-0.085,2.309-0.254
				c0.726-0.17,1.482-0.439,2.272-0.811v2.854c-0.645,0.322-1.334,0.562-2.067,0.719S208.552,198.691,207.497,198.691z
				 M206.977,187.303c-0.782,0-1.395,0.248-1.838,0.743c-0.443,0.496-0.697,1.199-0.761,2.109h5.174
				c-0.017-0.91-0.254-1.613-0.714-2.109C208.379,187.551,207.758,187.303,206.977,187.303z"/>
		</g>
		<g>
			<path fill="#99FFFF" d="M223.55,184.68c0.499,0,0.914,0.037,1.245,0.109l-0.278,3.457c-0.298-0.08-0.661-0.12-1.088-0.12
				c-1.177,0-2.094,0.302-2.75,0.906c-0.657,0.604-0.985,1.45-0.985,2.539v6.878h-3.687v-13.515h2.792l0.544,2.273h0.182
				c0.419-0.758,0.985-1.368,1.698-1.832S222.712,184.68,223.55,184.68z"/>
		</g>
		<g>
			<path fill="#99FFFF" d="M225.316,184.934h4.037l2.551,7.604c0.218,0.661,0.367,1.442,0.447,2.345h0.073
				c0.088-0.83,0.262-1.611,0.52-2.345l2.502-7.604h3.953l-5.718,15.244c-0.523,1.41-1.271,2.466-2.242,3.167
				c-0.972,0.701-2.105,1.052-3.403,1.052c-0.637,0-1.261-0.068-1.873-0.205v-2.926c0.442,0.104,0.926,0.157,1.45,0.157
				c0.652,0,1.223-0.199,1.711-0.599c0.487-0.398,0.868-1.001,1.142-1.807l0.218-0.665L225.316,184.934z"/>
		</g>
	</g>
</g>
<g>
	<g>
		<g>
			<path fill="#70B4B4" d="M354.862,70.338c0.954-5.417-2.763-9.996-8.26-10.176L200.96,55.387c-5.497-0.18-8.801,4.011-7.342,9.314
				l8.61,31.289c1.459,5.303,7.146,9.39,12.637,9.082l125.231-7.026c5.491-0.308,10.765-4.992,11.719-10.409L354.862,70.338z"/>
		</g>
	</g>
	<g enable-background="new    ">
		<g>
			<path fill="#85DADA" d="M225.678,87.493h-4.394l-2.464-9.559c-0.092-0.34-0.247-1.043-0.467-2.109
				c-0.22-1.066-0.347-1.782-0.38-2.147c-0.05,0.448-0.174,1.168-0.373,2.16c-0.199,0.991-0.353,1.698-0.461,2.122l-2.452,9.533
				h-4.381l-4.642-18.196h3.796l2.328,9.932c0.406,1.834,0.701,3.422,0.883,4.767c0.05-0.473,0.164-1.205,0.342-2.197
				c0.178-0.991,0.347-1.761,0.504-2.309l2.651-10.193h3.646l2.651,10.193c0.116,0.457,0.262,1.153,0.436,2.091
				c0.174,0.938,0.307,1.743,0.398,2.415c0.083-0.647,0.216-1.454,0.398-2.421c0.182-0.967,0.349-1.749,0.497-2.346l2.315-9.932
				h3.796L225.678,87.493z"/>
		</g>
		<g>
			<path fill="#85DADA" d="M244.944,80.511c0,2.266-0.597,4.037-1.792,5.314c-1.194,1.278-2.858,1.917-4.99,1.917
				c-1.336,0-2.515-0.293-3.535-0.878s-1.805-1.425-2.352-2.52c-0.548-1.096-0.822-2.373-0.822-3.834c0-2.272,0.594-4.04,1.78-5.302
				c1.187-1.261,2.854-1.892,5.003-1.892c1.336,0,2.515,0.291,3.535,0.871c1.021,0.581,1.805,1.415,2.352,2.502
				C244.67,77.777,244.944,79.051,244.944,80.511z M235.324,80.511c0,1.378,0.226,2.419,0.679,3.124
				c0.452,0.705,1.188,1.058,2.209,1.058c1.012,0,1.74-0.35,2.184-1.051c0.444-0.701,0.666-1.745,0.666-3.131
				c0-1.377-0.224-2.41-0.672-3.099s-1.183-1.033-2.203-1.033c-1.012,0-1.742,0.343-2.19,1.027S235.324,79.126,235.324,80.511z"/>
		</g>
		<g>
			<path fill="#85DADA" d="M255.847,73.317c0.514,0,0.941,0.038,1.281,0.112l-0.286,3.56c-0.307-0.083-0.681-0.125-1.12-0.125
				c-1.211,0-2.155,0.312-2.831,0.934c-0.677,0.622-1.015,1.493-1.015,2.613v7.082h-3.796V73.579h2.875l0.561,2.34h0.187
				c0.431-0.78,1.014-1.409,1.748-1.886S254.984,73.317,255.847,73.317z"/>
		</g>
		<g>
			<path fill="#85DADA" d="M264.061,87.742c-1.635,0-2.919-0.635-3.853-1.904s-1.4-3.028-1.4-5.277c0-2.281,0.476-4.059,1.426-5.333
				c0.949-1.274,2.259-1.911,3.927-1.911c1.75,0,3.086,0.681,4.007,2.041h0.125c-0.191-1.037-0.286-1.962-0.286-2.775v-4.456h3.808
				v19.366h-2.912l-0.734-1.805h-0.161C267.143,87.058,265.828,87.742,264.061,87.742z M265.392,84.718
				c0.971,0,1.683-0.282,2.135-0.847c0.452-0.563,0.699-1.522,0.74-2.875v-0.41c0-1.494-0.23-2.564-0.69-3.211
				c-0.461-0.647-1.209-0.971-2.246-0.971c-0.847,0-1.505,0.358-1.973,1.076c-0.47,0.718-0.703,1.761-0.703,3.13
				s0.236,2.396,0.709,3.081S264.513,84.718,265.392,84.718z"/>
		</g>
		<g>
			<path fill="#85DADA" d="M283.426,87.742c-1.635,0-2.916-0.593-3.846-1.78h-0.199c0.133,1.162,0.199,1.834,0.199,2.017v5.638
				h-3.796V73.579h3.087l0.535,1.805h0.174c0.888-1.377,2.203-2.066,3.945-2.066c1.643,0,2.929,0.635,3.858,1.904
				c0.929,1.27,1.394,3.032,1.394,5.289c0,1.485-0.218,2.775-0.653,3.871c-0.436,1.095-1.056,1.929-1.86,2.502
				C285.459,87.456,284.513,87.742,283.426,87.742z M282.306,76.354c-0.938,0-1.622,0.288-2.054,0.864
				c-0.432,0.577-0.655,1.529-0.672,2.856v0.411c0,1.493,0.222,2.563,0.666,3.211c0.443,0.647,1.146,0.971,2.109,0.971
				c1.701,0,2.552-1.402,2.552-4.207c0-1.369-0.21-2.396-0.629-3.08S283.203,76.354,282.306,76.354z"/>
		</g>
		<g>
			<path fill="#85DADA" d="M299.681,73.317c0.514,0,0.941,0.038,1.281,0.112l-0.286,3.56c-0.307-0.083-0.681-0.125-1.12-0.125
				c-1.211,0-2.155,0.312-2.831,0.934c-0.677,0.622-1.015,1.493-1.015,2.613v7.082h-3.796V73.579h2.875l0.561,2.34h0.187
				c0.431-0.78,1.014-1.409,1.748-1.886S298.818,73.317,299.681,73.317z"/>
		</g>
		<g>
			<path fill="#85DADA" d="M309.787,87.742c-2.24,0-3.991-0.618-5.252-1.854c-1.262-1.236-1.893-2.987-1.893-5.252
				c0-2.332,0.583-4.134,1.749-5.408s2.777-1.911,4.835-1.911c1.967,0,3.497,0.56,4.593,1.68c1.096,1.121,1.643,2.667,1.643,4.642
				v1.842h-8.973c0.041,1.079,0.36,1.921,0.958,2.527c0.598,0.605,1.436,0.908,2.514,0.908c0.838,0,1.631-0.087,2.377-0.262
				c0.747-0.174,1.527-0.452,2.34-0.834v2.938c-0.663,0.332-1.373,0.579-2.128,0.74C311.794,87.661,310.874,87.742,309.787,87.742z
				 M309.251,76.019c-0.805,0-1.436,0.255-1.892,0.765c-0.457,0.511-0.718,1.234-0.784,2.172h5.326
				c-0.017-0.938-0.261-1.661-0.734-2.172C310.695,76.273,310.056,76.019,309.251,76.019z"/>
		</g>
		<g>
			<path fill="#85DADA" d="M328.256,83.361c0,1.427-0.496,2.514-1.487,3.261c-0.992,0.747-2.475,1.12-4.449,1.12
				c-1.013,0-1.876-0.068-2.589-0.205c-0.714-0.138-1.382-0.338-2.004-0.604v-3.136c0.705,0.332,1.5,0.609,2.384,0.834
				c0.883,0.224,1.661,0.336,2.333,0.336c1.377,0,2.066-0.398,2.066-1.195c0-0.298-0.092-0.541-0.274-0.728
				s-0.497-0.398-0.945-0.635s-1.046-0.513-1.792-0.828c-1.07-0.447-1.857-0.862-2.359-1.244s-0.866-0.819-1.095-1.313
				c-0.229-0.493-0.343-1.101-0.343-1.823c0-1.236,0.479-2.192,1.438-2.869c0.959-0.676,2.317-1.014,4.076-1.014
				c1.676,0,3.307,0.365,4.892,1.095l-1.146,2.738c-0.696-0.299-1.348-0.543-1.954-0.734c-0.605-0.19-1.224-0.286-1.854-0.286
				c-1.12,0-1.681,0.304-1.681,0.909c0,0.34,0.181,0.635,0.541,0.884c0.361,0.248,1.151,0.618,2.371,1.107
				c1.087,0.439,1.884,0.851,2.39,1.231c0.506,0.382,0.88,0.822,1.12,1.319C328.136,82.079,328.256,82.673,328.256,83.361z"/>
		</g>
		<g>
			<path fill="#85DADA" d="M340.926,83.361c0,1.427-0.496,2.514-1.487,3.261c-0.992,0.747-2.475,1.12-4.449,1.12
				c-1.013,0-1.876-0.068-2.589-0.205c-0.714-0.138-1.382-0.338-2.004-0.604v-3.136c0.705,0.332,1.5,0.609,2.384,0.834
				c0.883,0.224,1.661,0.336,2.333,0.336c1.377,0,2.066-0.398,2.066-1.195c0-0.298-0.092-0.541-0.274-0.728
				s-0.497-0.398-0.945-0.635s-1.046-0.513-1.792-0.828c-1.07-0.447-1.857-0.862-2.359-1.244s-0.866-0.819-1.095-1.313
				c-0.229-0.493-0.343-1.101-0.343-1.823c0-1.236,0.479-2.192,1.438-2.869c0.959-0.676,2.317-1.014,4.076-1.014
				c1.676,0,3.307,0.365,4.892,1.095l-1.146,2.738c-0.696-0.299-1.348-0.543-1.954-0.734c-0.605-0.19-1.224-0.286-1.854-0.286
				c-1.12,0-1.681,0.304-1.681,0.909c0,0.34,0.181,0.635,0.541,0.884c0.361,0.248,1.151,0.618,2.371,1.107
				c1.087,0.439,1.884,0.851,2.39,1.231c0.506,0.382,0.88,0.822,1.12,1.319C340.806,82.079,340.926,82.673,340.926,83.361z"/>
		</g>
	</g>
</g>
<g>
	<g>
		<polygon fill="#5C8F8F" points="484.542,369.559 441.623,369.559 398.703,369.559 388.867,419.93 441.623,419.93 494.378,419.93 
					"/>
	</g>
	<g>
		<path fill="#85DADA" d="M497.06,415.459c-6.557,0-55.438,0-55.438,0s-48.881,0-55.438,0c-6.557,0-7.749,2.682-7.749,8.942h63.187
			h63.187C504.81,418.141,503.618,415.459,497.06,415.459z"/>
	</g>
	<g>
		<path fill="#476969" d="M613.003,138.27c0-6.557-5.365-11.922-11.922-11.922H280.973c-6.557,0-11.922,5.365-11.922,11.922v205.358
			h343.952V138.27z"/>
	</g>
	<g>
		<rect x="283.953" y="140.059" fill="#70B4B4" width="315.339" height="189.263"/>
	</g>
	<g>
		<path fill="#85DADA" d="M269.05,343.628v20.864c0,6.557,5.365,11.922,11.922,11.922H601.08c6.557,0,11.922-5.365,11.922-11.922
			v-20.864H269.05z"/>
	</g>
	<g>
		<g>
			<rect x="283.953" y="140.059" fill="#5C8F8F" width="315.339" height="189.263"/>
		</g>
		<g>
			<g>
				<rect x="307.816" y="159.612" fill="#F97B62" width="121.737" height="3"/>
			</g>
			<g>
				<rect x="307.816" y="306.769" fill="#F97B62" width="121.737" height="3"/>
			</g>
			<g>
				<rect x="329.651" y="167.787" fill="#70B4B4" width="121.737" height="3"/>
			</g>
			<g>
				<rect x="329.651" y="200.489" fill="#70B4B4" width="25.416" height="3"/>
			</g>
			<g>
				<rect x="329.651" y="208.664" fill="#70B4B4" width="60.868" height="3"/>
			</g>
			<g>
				<rect x="329.651" y="249.541" fill="#70B4B4" width="60.868" height="3"/>
			</g>
			<g>
				<rect x="351.486" y="265.892" fill="#85DADA" width="60.868" height="3"/>
			</g>
			<g>
				<rect x="351.486" y="290.418" fill="#85DADA" width="60.868" height="3"/>
			</g>
			<g>
				<rect x="373.32" y="274.067" fill="#99FFFF" width="60.87" height="3"/>
			</g>
			<g>
				<rect x="373.32" y="282.243" fill="#99FFFF" width="60.87" height="3"/>
			</g>
			<g>
				<rect x="329.651" y="257.716" fill="#70B4B4" width="78.573" height="3"/>
			</g>
			<g>
				<rect x="329.651" y="298.593" fill="#70B4B4" width="78.573" height="3"/>
			</g>
			<g>
				<rect x="351.486" y="175.963" fill="#85DADA" width="130.568" height="3"/>
			</g>
			<g>
				<rect x="351.486" y="184.138" fill="#85DADA" width="160.1" height="3"/>
			</g>
			<g>
				<rect x="351.486" y="192.313" fill="#85DADA" width="145.663" height="3"/>
			</g>
			<g>
				<rect x="351.486" y="216.84" fill="#85DADA" width="118.427" height="3"/>
			</g>
			<g>
				<g>
					<rect x="351.486" y="225.015" fill="#85DADA" width="174.539" height="3"/>
				</g>
				<g>
					<rect x="538.849" y="225.015" fill="#85DADA" width="34.099" height="3"/>
				</g>
			</g>
			<g>
				<rect x="351.486" y="233.19" fill="#85DADA" width="214.57" height="3"/>
			</g>
			<g>
				<g>
					<rect x="351.486" y="241.366" fill="#85DADA" width="103.005" height="3"/>
				</g>
				<g>
					<rect x="460.083" y="241.366" fill="#85DADA" width="103.006" height="3"/>
				</g>
			</g>
		</g>
	</g>
</g>
<g>
	<g>
		<polygon fill="#85DADA" points="217.415,504.592 226.292,488.61 239.098,510.092 245.128,506.497 208.41,444.903 		"/>
	</g>
	<g>
		<polygon fill="#70B4B4" points="208.41,444.903 245.128,506.497 251.159,502.902 238.353,481.419 256.637,481.21 		"/>
	</g>
</g>
</svg>
