<?xml version="1.0" encoding="utf-8"?>
<!-- Generator: Adobe Illustrator 17.0.0, SVG Export Plug-In . SVG Version: 6.00 Build 0)  -->
<!DOCTYPE svg PUBLIC "-//W3C//DTD SVG 1.1//EN" "http://www.w3.org/Graphics/SVG/1.1/DTD/svg11.dtd">
<svg version="1.1" id="Laag_1" xmlns="http://www.w3.org/2000/svg" xmlns:xlink="http://www.w3.org/1999/xlink" x="0px" y="0px"
	 width="865px" height="565px" viewBox="0 0 865 565" enable-background="new 0 0 865 565" xml:space="preserve">
<g>
	<g>
		<circle fill="#99FFFF" cx="329.983" cy="137.418" r="3.456"/>
	</g>
	<g>
		<circle fill="#F97B62" cx="348.422" cy="110.539" r="14.343"/>
	</g>
	<g>
		<circle fill="#99FFFF" cx="408.519" cy="94.291" r="23.372"/>
	</g>
	<g>
		<circle fill="#F97B62" cx="442.16" cy="58.153" r="10.542"/>
	</g>
	<g>
		<circle fill="#99FFFF" cx="463.131" cy="101.847" r="9.073"/>
	</g>
	<g>
		<circle fill="#99FFFF" cx="363.773" cy="78.757" r="3.802"/>
	</g>
</g>
<g>
	<g>
		<circle fill="#99FFFF" cx="285.99" cy="107.906" r="3.902"/>
	</g>
	<g>
		<circle fill="#99FFFF" cx="299.625" cy="73.725" r="16.193"/>
	</g>
	<g>
		<circle fill="#F97B62" cx="208.638" cy="91.408" r="26.385"/>
	</g>
	<g>
		<circle fill="#99FFFF" cx="188.497" cy="143.38" r="11.901"/>
	</g>
	<g>
		<circle fill="#F97B62" cx="148.216" cy="106.348" r="10.243"/>
	</g>
	<g>
		<circle fill="#99FFFF" cx="262.056" cy="88.961" r="4.292"/>
	</g>
</g>
<g>
	<g>
		<rect x="545.676" y="81.089" fill="#F97B62" width="58.008" height="29.798"/>
	</g>
	<g>
		<circle fill="#F97B62" cx="545.676" cy="95.988" r="14.899"/>
	</g>
	<g>
		<circle fill="#F97B62" cx="603.684" cy="95.988" r="14.899"/>
	</g>
	<g>
		<circle fill="#F97B62" cx="580.346" cy="75.952" r="14.899"/>
	</g>
	<g>
		<circle fill="#F97B62" cx="557.234" cy="79.205" r="14.899"/>
	</g>
	<g>
		<circle fill="#F97B62" cx="568.142" cy="63.878" r="8.819"/>
	</g>
	<g>
		<circle fill="#F97B62" cx="599.99" cy="79.205" r="8.819"/>
	</g>
</g>
<g>
	<g>
		<rect x="492.005" y="63.01" fill="#F97B62" width="44.886" height="23.057"/>
	</g>
	<g>
		<circle fill="#F97B62" cx="492.005" cy="74.538" r="11.529"/>
	</g>
	<g>
		<circle fill="#F97B62" cx="536.891" cy="74.538" r="11.529"/>
	</g>
	<g>
		<circle fill="#F97B62" cx="518.832" cy="59.034" r="11.529"/>
	</g>
	<g>
		<circle fill="#F97B62" cx="500.948" cy="61.552" r="11.529"/>
	</g>
	<g>
		<circle fill="#F97B62" cx="509.389" cy="49.692" r="6.824"/>
	</g>
	<g>
		<circle fill="#F97B62" cx="534.032" cy="61.552" r="6.824"/>
	</g>
</g>
<g>
	<g>
		<rect x="728.151" y="254.073" fill="#F97B62" width="41.934" height="21.541"/>
	</g>
	<g>
		<circle fill="#F97B62" cx="728.151" cy="264.844" r="10.771"/>
	</g>
	<g>
		<circle fill="#F97B62" cx="770.086" cy="264.844" r="10.771"/>
	</g>
	<g>
		<circle fill="#F97B62" cx="753.215" cy="250.359" r="10.771"/>
	</g>
	<g>
		<circle fill="#F97B62" cx="736.506" cy="252.712" r="10.771"/>
	</g>
	<g>
		<circle fill="#F97B62" cx="744.393" cy="241.632" r="6.376"/>
	</g>
	<g>
		<circle fill="#F97B62" cx="767.416" cy="252.712" r="6.376"/>
	</g>
</g>
<g>
	<g>
		<rect x="299.546" y="115.179" fill="#F97B62" width="8.646" height="64.551"/>
	</g>
	<g>
		<rect x="311.764" y="129.299" fill="#99FFFF" width="8.646" height="50.431"/>
	</g>
	<g>
		<rect x="323.982" y="136.168" fill="#99FFFF" width="8.646" height="43.563"/>
	</g>
	<g>
		<rect x="336.201" y="165.888" fill="#99FFFF" width="8.646" height="13.842"/>
	</g>
	<g>
		<rect x="287.327" y="124.36" fill="#99FFFF" width="8.646" height="55.37"/>
	</g>
	<g>
		<rect x="275.109" y="142.215" fill="#99FFFF" width="8.646" height="37.516"/>
	</g>
	<g>
		<rect x="262.891" y="152.046" fill="#99FFFF" width="8.646" height="27.685"/>
	</g>
	<g>
		<rect x="250.672" y="157.6" fill="#99FFFF" width="8.646" height="22.131"/>
	</g>
</g>
<g>
	<path fill="#85DADA" d="M753.421,140.164h-12v-4h12V140.164z M729.421,140.164h-12v-4h12V140.164z M705.421,140.164h-12v-4h12
		V140.164z M681.421,140.164h-12v-4h12V140.164z M657.421,140.164h-9.808v-6.192h4v2.192h5.808V140.164z M757.973,128.716h-4v-12h4
		V128.716z M651.613,121.972h-4v-12h4V121.972z M757.973,104.716h-4v-12h4V104.716z M651.613,97.972h-4v-12h4V97.972z
		 M755.973,81.075h-10.359v-4h12.359v3.641h-2V81.075z M733.613,81.075h-12v-4h12V81.075z M709.613,81.075h-12v-4h12V81.075z
		 M685.613,81.075h-12v-4h12V81.075z M661.613,81.075h-12v-4h12V81.075z"/>
</g>
<g>
	<g>
		<rect x="602.22" y="437.008" fill="#5C8F8F" width="162.713" height="100.202"/>
	</g>
	<g>
		<rect x="641.557" y="453.607" fill="#476969" width="106.83" height="70.733"/>
	</g>
	<g>
		<rect x="617.55" y="506.657" fill="#70B4B4" width="24.007" height="17.683"/>
	</g>
	<g>
		<rect x="617.55" y="453.607" fill="#85DADA" width="24.007" height="17.683"/>
	</g>
	<g>
		<rect x="617.55" y="488.974" fill="#85DADA" width="24.007" height="17.683"/>
	</g>
	<g>
		<rect x="617.55" y="471.29" fill="#70B4B4" width="24.007" height="17.683"/>
	</g>
</g>
<g>
	<g>
		<g>
			<polygon fill="#70B4B4" points="182.393,242.312 176.083,239.698 177.615,236.002 182.393,237.982 187.17,236.002 
				188.702,239.698 			"/>
		</g>
		<g>
			<path fill="#70B4B4" d="M166.711,235.815l-9.374-3.882l1.53-3.695l9.374,3.882L166.711,235.815z M147.964,228.051l-5.452-2.258
				l-2.258-5.453l3.695-1.53l1.625,3.921l3.92,1.624L147.964,228.051z M136.371,210.967l-3.882-9.373l3.695-1.53l3.882,9.373
				L136.371,210.967z"/>
		</g>
		<g>
			<polygon fill="#70B4B4" points="128.606,192.22 125.994,185.912 128.606,179.603 132.302,181.133 130.323,185.912 
				132.302,190.69 			"/>
		</g>
		<g>
			
				<rect x="134.1" y="161.819" transform="matrix(0.9238 0.3828 -0.3828 0.9238 74.1963 -39.3997)" fill="#70B4B4" width="4" height="9.836"/>
		</g>
		<g>
			<polygon fill="#70B4B4" points="143.595,153.87 139.899,152.34 142.512,146.031 148.821,143.418 150.351,147.114 
				145.574,149.093 			"/>
		</g>
		<g>
			<path fill="#70B4B4" d="M205.06,143.231l-9.374-3.883l1.531-3.695l9.374,3.883L205.06,143.231z M159.724,143.23l-1.53-3.695
				l9.374-3.882l1.53,3.695L159.724,143.23z M178.471,135.466l-1.53-3.695l5.453-2.258l5.451,2.258l-1.53,3.695l-3.921-1.624
				L178.471,135.466z"/>
		</g>
		<g>
			<polygon fill="#70B4B4" points="221.19,153.87 219.211,149.093 214.434,147.114 215.964,143.418 222.273,146.031 224.886,152.34 
							"/>
		</g>
		<g>
			<path fill="#70B4B4" d="M228.769,210.11l-3.695-1.53l3.882-9.374l3.695,1.53L228.769,210.11z M236.534,191.363l-3.695-1.53
				l1.624-3.921l-1.625-3.922l3.695-1.53l2.258,5.453L236.534,191.363z M228.956,172.617l-3.882-9.374l3.695-1.53l3.882,9.374
				L228.956,172.617z"/>
		</g>
		<g>
			<polygon fill="#70B4B4" points="215.964,228.406 214.434,224.71 219.211,222.731 221.19,217.953 224.886,219.483 
				222.273,225.793 			"/>
		</g>
		<g>
			
				<rect x="199.567" y="227.286" transform="matrix(0.3826 0.9239 -0.9239 0.3826 338.9828 -42.8683)" fill="#70B4B4" width="4" height="9.837"/>
		</g>
	</g>
</g>
<g>
	<g>
		<g>
			<g>
				<path fill="#70B4B4" d="M171.504,396.22c-19.62,0-35.581-15.962-35.581-35.581s15.961-35.581,35.581-35.581v4
					c-17.414,0-31.581,14.167-31.581,31.581s14.167,31.581,31.581,31.581s31.581-14.167,31.581-31.581h4
					C207.085,380.258,191.124,396.22,171.504,396.22z"/>
			</g>
			<g>
				<g>
					<polygon fill="#70B4B4" points="168.585,337.031 185.855,327.058 168.585,317.086 					"/>
				</g>
			</g>
		</g>
	</g>
	<g>
		<rect x="201.044" y="356.599" fill="#85DADA" width="8.08" height="8.08"/>
	</g>
	<g>
		<rect x="167.463" y="390.18" fill="#85DADA" width="8.08" height="8.08"/>
	</g>
	<g>
		<rect x="133.882" y="356.599" fill="#85DADA" width="8.08" height="8.08"/>
	</g>
</g>
<g>
	<g>
		<polygon fill="none" points="128.449,488.719 128.436,486.842 128.439,488.713 		"/>
	</g>
	<g>
		<polygon fill="none" points="118.853,459.145 128.424,464.814 128.424,464.685 		"/>
	</g>
	<g>
		<polygon fill="#85DADA" points="173.825,458.562 167.177,462.55 173.825,458.578 		"/>
	</g>
	<g>
		<polygon fill="#85DADA" points="158.986,467.181 152.339,471.17 158.986,467.198 		"/>
	</g>
	<g>
		<polygon fill="#70B4B4" points="102.654,455.191 109.302,459.162 102.654,455.174 		"/>
	</g>
	<g>
		<polygon fill="#70B4B4" points="118.853,479.386 118.853,479.409 118.89,479.408 		"/>
	</g>
	<g>
		<polygon fill="#70B4B4" points="85.423,445.334 92.071,449.306 85.423,445.318 		"/>
	</g>
	<g>
		<polygon fill="#F97B62" points="163.716,412.008 97.948,374.037 75.212,414.982 140.98,452.953 		"/>
	</g>
	<g>
		<polygon fill="#85DADA" points="118.853,479.386 118.853,459.145 115.621,457.231 115.621,481.286 118.853,479.409 		"/>
	</g>
	<g>
		<polygon fill="#FFFFFF" points="128.436,486.842 128.424,479.015 128.424,485.128 		"/>
	</g>
	<g>
		<polygon fill="#70B4B4" points="128.424,464.814 128.449,464.828 128.449,464.699 128.424,464.685 		"/>
	</g>
	<g>
		<polygon fill="#85DADA" points="85.423,445.318 85.423,434.84 83.178,433.511 83.178,446.637 85.423,445.334 		"/>
	</g>
	<g>
		<polygon fill="#99FFFF" points="83.178,446.637 92.088,451.8 92.071,449.306 85.423,445.334 		"/>
	</g>
	<g>
		<polygon fill="#85DADA" points="102.654,455.174 102.654,444.697 100.409,443.368 100.409,456.494 102.654,455.191 		"/>
	</g>
	<g>
		<polygon fill="#99FFFF" points="100.409,456.494 109.319,461.657 109.302,459.162 102.654,455.191 		"/>
	</g>
	<g>
		<path fill="#70B4B4" d="M75.212,414.982v43.014l40.487,23.375l-0.078-0.086v-24.054l3.232,1.914l9.571,5.54l0.025,0.014v0.129
			l-0.025-0.015v14.201l0.012,7.827l0.013,1.877l-0.01-0.006v0.014l12.541,7.241v-43.014L75.212,414.982z M83.178,446.637v-13.126
			l2.245,1.33l6.648,3.937v10.528l0.017,2.495L83.178,446.637z M100.409,456.494v-13.126l2.245,1.329l6.648,3.937v10.528
			l0.017,2.495L100.409,456.494z"/>
	</g>
	<g>
		<polygon fill="#70B4B4" points="158.986,467.181 158.986,467.198 161.232,468.501 161.232,455.375 158.986,456.705 		"/>
	</g>
	<g>
		<polygon fill="#99FFFF" points="152.339,471.17 152.321,473.664 161.232,468.501 158.986,467.198 		"/>
	</g>
	<g>
		<polygon fill="#70B4B4" points="173.825,458.562 173.825,458.578 176.07,459.882 176.07,446.756 173.825,448.085 		"/>
	</g>
	<g>
		<polygon fill="#99FFFF" points="167.177,462.55 167.16,465.045 176.07,459.882 173.825,458.578 		"/>
	</g>
	<g>
		<path fill="#85DADA" d="M163.716,412.008l-22.736,40.945v43.014l45.473-26.254v-43.014L163.716,412.008z M161.232,468.501
			l-8.91,5.163l0.017-2.494v-10.528l6.648-3.937l2.245-1.33L161.232,468.501L161.232,468.501z M176.07,459.882l-8.91,5.163
			l0.017-2.494v-10.528l6.648-3.937l2.245-1.33L176.07,459.882L176.07,459.882z"/>
	</g>
</g>
<g>
	<g>
		<circle fill="#85DADA" cx="217.509" cy="475.023" r="23.829"/>
	</g>
	<g>
		<circle fill="#5C8F8F" cx="200.828" cy="505.801" r="23.829"/>
	</g>
	<g>
		
			<rect x="185.337" y="472.919" transform="matrix(-0.8792 -0.4765 0.4765 -0.8792 159.3803 1021.2605)" fill="#5C8F8F" width="47.659" height="35.009"/>
	</g>
	<g>
		<polygon fill="#99FFFF" points="217.912,476.379 196.083,464.547 197.036,462.789 217.106,473.668 227.984,453.597 
			229.743,454.55 		"/>
	</g>
	<g>
		
			<rect x="214.346" y="466.894" transform="matrix(-0.8792 -0.4765 0.4765 -0.8792 182.3875 996.3151)" fill="#F97B62" width="6.323" height="16.281"/>
	</g>
</g>
<g>
	<g>
		<g>
			<path fill="#70B4B4" d="M566.76,526.834c-0.102,2.748-2.436,5.002-5.186,5.01l-291.928,0.764c-2.75,0.007-5-2.237-5-4.987v-88.64
				c0-2.75,2.25-4.961,4.999-4.914l295.378,5.066c2.75,0.047,4.916,2.334,4.813,5.082L566.76,526.834z"/>
		</g>
	</g>
	<g>
		<g>
			<rect x="272.663" y="448.714" fill="#5C8F8F" width="14.62" height="13.924"/>
		</g>
		<g>
			<rect x="289.749" y="448.714" fill="#5C8F8F" width="14.62" height="13.924"/>
		</g>
		<g>
			<rect x="306.835" y="448.714" fill="#5C8F8F" width="14.62" height="13.924"/>
		</g>
		<g>
			<rect x="323.92" y="448.714" fill="#5C8F8F" width="14.62" height="13.924"/>
		</g>
		<g>
			<rect x="341.006" y="448.714" fill="#5C8F8F" width="14.62" height="13.924"/>
		</g>
		<g>
			<rect x="358.092" y="448.714" fill="#5C8F8F" width="14.62" height="13.924"/>
		</g>
		<g>
			<rect x="375.177" y="448.714" fill="#5C8F8F" width="14.62" height="13.924"/>
		</g>
		<g>
			<rect x="392.263" y="448.714" fill="#5C8F8F" width="14.62" height="13.924"/>
		</g>
		<g>
			<rect x="409.349" y="448.714" fill="#5C8F8F" width="14.62" height="13.924"/>
		</g>
	</g>
	<g>
		<g>
			<rect x="441.924" y="448.714" fill="#5C8F8F" width="14.62" height="13.924"/>
		</g>
		<g>
			<rect x="459.01" y="448.714" fill="#5C8F8F" width="14.62" height="13.924"/>
		</g>
		<g>
			<rect x="476.096" y="448.714" fill="#5C8F8F" width="14.62" height="13.924"/>
		</g>
		<g>
			<rect x="510.267" y="448.714" fill="#5C8F8F" width="14.62" height="13.924"/>
		</g>
		<g>
			<rect x="527.353" y="448.714" fill="#5C8F8F" width="14.62" height="13.924"/>
		</g>
		<g>
			<rect x="544.439" y="448.714" fill="#5C8F8F" width="14.62" height="13.924"/>
		</g>
	</g>
	<g>
		<g>
			<rect x="441.924" y="467.975" fill="#5C8F8F" width="14.62" height="13.924"/>
		</g>
		<g>
			<rect x="459.01" y="467.975" fill="#5C8F8F" width="14.62" height="13.924"/>
		</g>
		<g>
			<rect x="476.096" y="467.975" fill="#5C8F8F" width="14.62" height="13.924"/>
		</g>
		<g>
			<rect x="510.267" y="467.975" fill="#5C8F8F" width="14.62" height="13.924"/>
		</g>
		<g>
			<rect x="527.353" y="467.975" fill="#5C8F8F" width="14.62" height="13.924"/>
		</g>
		<g>
			<rect x="544.439" y="467.975" fill="#5C8F8F" width="14.62" height="13.924"/>
		</g>
	</g>
	<g>
		<g>
			<rect x="459.01" y="487.004" fill="#5C8F8F" width="14.62" height="13.924"/>
		</g>
		<g>
			<rect x="510.267" y="487.004" fill="#5C8F8F" width="14.62" height="13.924"/>
		</g>
		<g>
			<rect x="527.353" y="487.004" fill="#5C8F8F" width="14.62" height="13.924"/>
		</g>
		<g>
			<rect x="544.439" y="487.004" fill="#5C8F8F" width="14.62" height="13.924"/>
		</g>
	</g>
	<g>
		<g>
			<rect x="441.924" y="506.498" fill="#5C8F8F" width="14.62" height="13.924"/>
		</g>
		<g>
			<rect x="459.01" y="506.498" fill="#5C8F8F" width="14.62" height="13.924"/>
		</g>
		<g>
			<rect x="476.096" y="506.498" fill="#5C8F8F" width="14.62" height="13.924"/>
		</g>
		<g>
			<rect x="510.267" y="506.498" fill="#5C8F8F" width="14.62" height="13.924"/>
		</g>
		<g>
			<rect x="527.353" y="506.498" fill="#5C8F8F" width="31.706" height="13.924"/>
		</g>
	</g>
	<g>
		<g>
			<rect x="272.663" y="467.975" fill="#5C8F8F" width="14.62" height="13.924"/>
		</g>
		<g>
			<rect x="289.749" y="467.975" fill="#5C8F8F" width="14.62" height="13.924"/>
		</g>
		<g>
			<rect x="306.835" y="467.975" fill="#5C8F8F" width="14.62" height="13.924"/>
		</g>
		<g>
			<rect x="323.92" y="467.975" fill="#5C8F8F" width="14.62" height="13.924"/>
		</g>
		<g>
			<rect x="341.006" y="467.975" fill="#5C8F8F" width="14.62" height="13.924"/>
		</g>
		<g>
			<rect x="358.092" y="467.975" fill="#5C8F8F" width="14.62" height="13.924"/>
		</g>
		<g>
			<rect x="375.177" y="467.975" fill="#5C8F8F" width="14.62" height="13.924"/>
		</g>
		<g>
			<rect x="392.263" y="467.975" fill="#5C8F8F" width="14.62" height="13.924"/>
		</g>
		<g>
			<rect x="409.349" y="467.975" fill="#5C8F8F" width="14.62" height="13.924"/>
		</g>
	</g>
	<g>
		<g>
			<rect x="272.663" y="487.004" fill="#5C8F8F" width="14.62" height="13.924"/>
		</g>
		<g>
			<rect x="289.749" y="487.004" fill="#5C8F8F" width="14.62" height="13.924"/>
		</g>
		<g>
			<rect x="306.835" y="487.004" fill="#5C8F8F" width="14.62" height="13.924"/>
		</g>
		<g>
			<rect x="323.92" y="487.004" fill="#5C8F8F" width="14.62" height="13.924"/>
		</g>
		<g>
			<rect x="341.006" y="487.004" fill="#5C8F8F" width="14.62" height="13.924"/>
		</g>
		<g>
			<rect x="358.092" y="487.004" fill="#5C8F8F" width="14.62" height="13.924"/>
		</g>
		<g>
			<rect x="375.177" y="487.004" fill="#5C8F8F" width="14.62" height="13.924"/>
		</g>
		<g>
			<rect x="392.263" y="487.004" fill="#5C8F8F" width="14.62" height="13.924"/>
		</g>
		<g>
			<rect x="409.349" y="487.004" fill="#5C8F8F" width="14.62" height="13.924"/>
		</g>
	</g>
	<g>
		<g>
			<rect x="272.663" y="506.498" fill="#5C8F8F" width="14.62" height="13.924"/>
		</g>
		<g>
			<rect x="289.749" y="506.498" fill="#5C8F8F" width="14.62" height="13.924"/>
		</g>
		<g>
			<rect x="306.834" y="506.498" fill="#5C8F8F" width="82.963" height="13.924"/>
		</g>
		<g>
			<rect x="392.263" y="506.498" fill="#5C8F8F" width="14.62" height="13.924"/>
		</g>
		<g>
			<rect x="409.349" y="506.498" fill="#5C8F8F" width="14.62" height="13.924"/>
		</g>
	</g>
</g>
<g>
	<g>
		<rect x="74.339" y="194.305" fill="#70B4B4" width="90.323" height="117.078"/>
	</g>
	<g>
		<g>
			<g>
				<path fill="#85DADA" d="M89.594,190.761c0-1.038-0.849-1.888-1.888-1.888h-0.248c-1.038,0-1.888,0.849-1.888,1.888v7.088
					c0,1.038,0.849,1.888,1.888,1.888h0.248c1.038,0,1.888-0.849,1.888-1.888V190.761z"/>
			</g>
		</g>
		<g>
			<g>
				<path fill="#85DADA" d="M98.714,190.761c0-1.038-0.849-1.888-1.888-1.888h-0.248c-1.038,0-1.888,0.849-1.888,1.888v7.088
					c0,1.038,0.849,1.888,1.888,1.888h0.248c1.038,0,1.888-0.849,1.888-1.888V190.761z"/>
			</g>
		</g>
		<g>
			<g>
				<path fill="#85DADA" d="M107.833,190.761c0-1.038-0.849-1.888-1.888-1.888h-0.248c-1.038,0-1.888,0.849-1.888,1.888v7.088
					c0,1.038,0.849,1.888,1.888,1.888h0.248c1.038,0,1.888-0.849,1.888-1.888V190.761z"/>
			</g>
		</g>
		<g>
			<g>
				<path fill="#85DADA" d="M116.953,190.761c0-1.038-0.849-1.888-1.888-1.888h-0.248c-1.038,0-1.888,0.849-1.888,1.888v7.088
					c0,1.038,0.849,1.888,1.888,1.888h0.248c1.038,0,1.888-0.849,1.888-1.888V190.761z"/>
			</g>
		</g>
		<g>
			<g>
				<path fill="#85DADA" d="M126.072,190.761c0-1.038-0.849-1.888-1.888-1.888h-0.248c-1.038,0-1.888,0.849-1.888,1.888v7.088
					c0,1.038,0.849,1.888,1.888,1.888h0.248c1.038,0,1.888-0.849,1.888-1.888V190.761z"/>
			</g>
		</g>
		<g>
			<g>
				<path fill="#85DADA" d="M135.192,190.761c0-1.038-0.849-1.888-1.888-1.888h-0.248c-1.038,0-1.888,0.849-1.888,1.888v7.088
					c0,1.038,0.849,1.888,1.888,1.888h0.248c1.038,0,1.888-0.849,1.888-1.888V190.761z"/>
			</g>
		</g>
		<g>
			<g>
				<path fill="#85DADA" d="M144.311,190.761c0-1.038-0.849-1.888-1.888-1.888h-0.248c-1.038,0-1.888,0.849-1.888,1.888v7.088
					c0,1.038,0.849,1.888,1.888,1.888h0.248c1.038,0,1.888-0.849,1.888-1.888V190.761z"/>
			</g>
		</g>
		<g>
			<g>
				<path fill="#85DADA" d="M153.431,190.761c0-1.038-0.849-1.888-1.888-1.888h-0.248c-1.038,0-1.888,0.849-1.888,1.888v7.088
					c0,1.038,0.849,1.888,1.888,1.888h0.248c1.038,0,1.888-0.849,1.888-1.888V190.761z"/>
			</g>
		</g>
		<g>
			<g>
				<path fill="#85DADA" d="M162.55,190.761c0-1.038-0.849-1.888-1.888-1.888h-0.248c-1.038,0-1.888,0.849-1.888,1.888v7.088
					c0,1.038,0.849,1.888,1.888,1.888h0.248c1.038,0,1.888-0.849,1.888-1.888V190.761z"/>
			</g>
		</g>
		<g>
			<g>
				<path fill="#85DADA" d="M80.475,190.761c0-1.038-0.849-1.888-1.888-1.888h-0.248c-1.038,0-1.888,0.849-1.888,1.888v7.088
					c0,1.038,0.849,1.888,1.888,1.888h0.248c1.038,0,1.888-0.849,1.888-1.888V190.761z"/>
			</g>
		</g>
	</g>
	<g>
		<g>
			<rect x="85.638" y="215.639" fill="#85DADA" width="67.726" height="4.404"/>
		</g>
		<g>
			<rect x="85.638" y="225.094" fill="#85DADA" width="67.726" height="4.404"/>
		</g>
		<g>
			<rect x="85.638" y="234.549" fill="#85DADA" width="67.726" height="4.404"/>
		</g>
		<g>
			<rect x="85.638" y="244.004" fill="#85DADA" width="67.726" height="4.404"/>
		</g>
		<g>
			<rect x="85.638" y="253.459" fill="#85DADA" width="67.726" height="4.404"/>
		</g>
		<g>
			<rect x="85.638" y="272.368" fill="#85DADA" width="67.726" height="4.404"/>
		</g>
		<g>
			<rect x="85.638" y="262.913" fill="#85DADA" width="67.726" height="4.404"/>
		</g>
		<g>
			<rect x="85.638" y="281.823" fill="#85DADA" width="67.726" height="4.404"/>
		</g>
	</g>
</g>
<g>
	<g>
		<path fill="#85DADA" d="M783.606,341.751c-0.7-2.407-3.261-3.873-5.692-3.257l-5.853,1.482c-2.43,0.615-3.985,3.124-3.455,5.574
			l0.638,2.953l15.204-3.851L783.606,341.751z"/>
	</g>
	<g>
		<path fill="#5C8F8F" d="M769.246,348.503l11.194,51.748c0.53,2.45,2.952,3.951,5.382,3.336l10.271-2.601
			c2.43-0.616,3.846-3.088,3.145-5.495l-14.788-50.837L769.246,348.503z"/>
	</g>
	<g>
		<circle fill="#70B4B4" cx="766.458" cy="305.554" r="36.548"/>
	</g>
	<g>
		<path fill="#85DADA" d="M796.759,297.879c-4.239-16.735-21.241-26.865-37.976-22.627c-8.736,2.212-15.665,7.907-19.697,15.221
			c4.133-6.435,10.617-11.381,18.616-13.407c16.735-4.239,33.737,5.892,37.976,22.627c2.026,7.999,0.763,16.055-2.929,22.753
			C797.262,315.419,798.971,306.615,796.759,297.879z"/>
	</g>
	<g>
		<path fill="#99FFFF" d="M757.702,277.067c-7.999,2.026-14.483,6.972-18.616,13.407c-3.692,6.698-4.956,14.755-2.93,22.755
			c4.239,16.735,21.241,26.865,37.976,22.627c7.999-2.026,14.483-6.973,18.617-13.408c3.692-6.698,4.955-14.754,2.929-22.753
			C791.439,282.958,774.437,272.828,757.702,277.067z"/>
	</g>
</g>
<g>
	<polygon fill="#5C8F8F" points="565.587,368.733 534.067,368.733 502.546,368.733 495.323,405.725 534.067,405.725 572.81,405.725 
			"/>
</g>
<g>
	<path fill="#85DADA" d="M574.78,402.442c-4.816,0-40.713,0-40.713,0s-35.898,0-40.713,0c-4.816,0-5.691,1.97-5.691,6.567h46.405
		h46.405C580.471,404.412,579.596,402.442,574.78,402.442z"/>
</g>
<g>
	<path fill="#476969" d="M703.301,138.814c0-6.469-5.293-11.762-11.762-11.762h-315.82c-6.469,0-11.762,5.293-11.762,11.762V341.42
		h339.344V138.814z"/>
</g>
<g>
	<rect x="378.66" y="140.579" fill="#70B4B4" width="311.114" height="186.727"/>
</g>
<g>
	<path fill="#85DADA" d="M363.957,341.421v20.584c0,6.469,5.293,11.762,11.762,11.762h315.819c6.469,0,11.762-5.293,11.762-11.762
		v-20.584L363.957,341.421L363.957,341.421z"/>
</g>
<g>
	<rect x="378.595" y="140.579" fill="#70B4B4" width="311.178" height="186.298"/>
</g>
<g>
	<g>
		<path fill="none" stroke="#FFFFFF" stroke-miterlimit="10" d="M556.898,203.882"/>
	</g>
	<g>
		<path fill="none" stroke="#FFFFFF" stroke-miterlimit="10" d="M608.761,203.882"/>
	</g>
</g>
<g>
	<rect x="556.898" y="229.051" fill="#85DADA" width="117.498" height="86.939"/>
</g>
<g>
	<rect x="622.533" y="164.759" fill="#99FFFF" width="51.863" height="39.123"/>
</g>
<g enable-background="new    ">
	<g>
		<path fill="#85DADA" d="M413.854,206.174h-3.783v-29.176h-10.305v-3.36h24.392v3.36h-10.304V206.174z"/>
	</g>
	<g>
		<path fill="#85DADA" d="M434.021,206.174v-32.537h3.783v32.537H434.021z"/>
	</g>
	<g>
		<path fill="#85DADA" d="M461.712,206.174h-3.783v-29.176h-10.305v-3.36h24.392v3.36h-10.304V206.174z"/>
	</g>
	<g>
		<path fill="#85DADA" d="M481.88,206.174v-32.537h3.783v29.109h14.354v3.428H481.88z"/>
	</g>
	<g>
		<path fill="#85DADA" d="M528.643,206.174h-18.138v-32.537h18.138v3.36h-14.354v10.482h13.486v3.338h-13.486v11.973h14.354V206.174
			z"/>
	</g>
</g>
<g>
	<rect x="399.366" y="232.228" fill="#85DADA" width="134.818" height="3"/>
</g>
<g>
	<rect x="399.366" y="251.624" fill="#85DADA" width="134.818" height="3"/>
</g>
<g>
	<rect x="399.366" y="271.021" fill="#85DADA" width="134.818" height="3"/>
</g>
<g>
	<rect x="399.366" y="290.417" fill="#85DADA" width="134.818" height="3"/>
</g>
<g>
	<rect x="399.366" y="309.812" fill="#85DADA" width="96.811" height="3"/>
</g>
<g>
	<path fill="#85DADA" d="M556.898,164.759c10.803,0,19.561,8.758,19.561,19.561s-8.758,19.561-19.561,19.561h51.863v-39.123
		L556.898,164.759L556.898,164.759z M592.61,194.101c-5.402,0-9.781-4.379-9.781-9.781c0-5.402,4.379-9.781,9.781-9.781
		s9.781,4.379,9.781,9.781S598.012,194.101,592.61,194.101z"/>
</g>
<g>
	<path fill="#5C8F8F" d="M576.459,184.32c0-10.803-8.758-19.561-19.561-19.561v39.123
		C567.701,203.882,576.459,195.124,576.459,184.32z"/>
</g>
<g>
	<circle fill="#5C8F8F" cx="592.61" cy="184.32" r="9.781"/>
</g>
<g>
	<g>
		<polygon fill="#85DADA" points="733.924,204.862 746.91,181.265 765.901,212.84 774.764,207.51 720.314,116.976 		"/>
	</g>
	<g>
		<polygon fill="#70B4B4" points="720.314,116.976 774.764,207.51 783.628,202.178 764.638,170.602 791.575,170.188 		"/>
	</g>
</g>
<g>
	<g>
		<polygon fill="#99FFFF" points="340.65,368.733 309.13,368.733 277.609,368.733 270.386,405.725 309.13,405.725 347.873,405.725 
					"/>
	</g>
	<g>
		<path fill="#85DADA" d="M349.843,402.442c-4.816,0-40.713,0-40.713,0s-35.898,0-40.713,0c-4.816,0-5.691,1.97-5.691,6.567h46.405
			h46.405C355.534,404.412,354.659,402.442,349.843,402.442z"/>
	</g>
	<g>
		<path fill="#99FFFF" d="M434.991,198.875c0-4.816-3.94-8.756-8.756-8.756H191.148c-4.816,0-8.756,3.94-8.756,8.756V349.69H434.99
			V198.875H434.991z"/>
	</g>
	<g>
		<rect x="193.337" y="200.188" fill="#70B4B4" width="231.585" height="138.995"/>
	</g>
	<g>
		<path fill="#70B4B4" d="M182.393,349.689v15.322c0,4.816,3.94,8.756,8.756,8.756h235.087c4.816,0,8.756-3.94,8.756-8.756v-15.322
			H182.393z"/>
	</g>
	<g>
		<g>
			<rect x="193.337" y="200.188" fill="#5C8F8F" width="231.585" height="138.995"/>
		</g>
		<g>
			<g>
				<rect x="210.862" y="214.149" fill="#F97B62" width="89.404" height="3"/>
			</g>
			<g>
				<rect x="210.862" y="322.221" fill="#F97B62" width="89.404" height="3"/>
			</g>
			<g>
				<rect x="226.897" y="220.153" fill="#70B4B4" width="89.404" height="3"/>
			</g>
			<g>
				<rect x="226.897" y="244.169" fill="#70B4B4" width="18.666" height="3"/>
			</g>
			<g>
				<rect x="226.897" y="250.173" fill="#70B4B4" width="44.702" height="3"/>
			</g>
			<g>
				<rect x="226.897" y="280.193" fill="#70B4B4" width="44.702" height="3"/>
			</g>
			<g>
				<rect x="242.933" y="292.201" fill="#85DADA" width="44.702" height="3"/>
			</g>
			<g>
				<rect x="242.933" y="310.213" fill="#85DADA" width="44.702" height="3"/>
			</g>
			<g>
				<rect x="258.968" y="298.205" fill="#99FFFF" width="44.702" height="3"/>
			</g>
			<g>
				<rect x="258.968" y="304.209" fill="#99FFFF" width="44.702" height="3"/>
			</g>
			<g>
				<rect x="226.897" y="286.197" fill="#70B4B4" width="57.705" height="3"/>
			</g>
			<g>
				<rect x="226.897" y="316.217" fill="#70B4B4" width="57.705" height="3"/>
			</g>
			<g>
				<rect x="242.933" y="226.157" fill="#85DADA" width="95.889" height="3"/>
			</g>
			<g>
				<rect x="242.933" y="232.161" fill="#85DADA" width="117.578" height="3"/>
			</g>
			<g>
				<rect x="242.933" y="238.165" fill="#85DADA" width="106.975" height="3"/>
			</g>
			<g>
				<rect x="242.933" y="256.177" fill="#85DADA" width="86.973" height="3"/>
			</g>
			<g>
				<g>
					<rect x="242.933" y="262.181" fill="#85DADA" width="128.181" height="3"/>
				</g>
				<g>
					<rect x="380.533" y="262.181" fill="#85DADA" width="25.041" height="3"/>
				</g>
			</g>
			<g>
				<rect x="242.933" y="268.185" fill="#85DADA" width="157.58" height="3"/>
			</g>
			<g>
				<g>
					<rect x="242.933" y="274.189" fill="#85DADA" width="75.647" height="3"/>
				</g>
				<g>
					<rect x="322.687" y="274.189" fill="#85DADA" width="75.647" height="3"/>
				</g>
			</g>
		</g>
	</g>
	<g>
		<g>
			<rect x="193.337" y="200.188" fill="#85DADA" width="231.585" height="138.995"/>
		</g>
		<g>
			<g>
				<rect x="206.788" y="266.196" fill="#99FFFF" width="204.683" height="64.864"/>
			</g>
		</g>
		<g enable-background="new    ">
			<g>
				<path fill="#99FFFF" d="M268.249,249.127h-2.77v-23.082h-7.545v-2.659h17.861v2.659h-7.545V249.127z"/>
			</g>
			<g>
				<path fill="#99FFFF" d="M283.351,249.127v-25.741h2.771v25.741H283.351z"/>
			</g>
			<g>
				<path fill="#99FFFF" d="M303.962,249.127h-2.771v-23.082h-7.545v-2.659h17.861v2.659h-7.545V249.127z"/>
			</g>
			<g>
				<path fill="#99FFFF" d="M319.063,249.127v-25.741h2.771v23.029h10.512v2.711H319.063z"/>
			</g>
			<g>
				<path fill="#99FFFF" d="M353.641,249.127h-13.282v-25.741h13.282v2.659h-10.512v8.292h9.876v2.641h-9.876v9.472h10.512V249.127z
					"/>
			</g>
		</g>
	</g>
</g>
<g>
	<g>
		<polygon fill="#85DADA" points="735.892,450.647 728.449,467.639 720.036,451.106 		"/>
	</g>
	<g>
		<path fill="#70B4B4" d="M727.964,450.862l7.928-0.229c-6.357-7.079-3.373-118.418-11.356-118.187
			c-7.983,0.231,1.436,111.211-4.501,118.646L727.964,450.862z"/>
	</g>
</g>
<g>
	<g>
		<path fill="#F97B62" d="M442.961,399.773c-0.745-6.178,7.702-13.135,8.944-15.122c1.242-1.988,1.242-1.988,1.242-1.988
			s43.977-39.008,47.704-42.238c3.727-3.23,15.404,1.739,8.944,9.441s-6.46,7.702-6.46,7.702l-37.268,42.204
			c0,0-11.912,9.203-16.018,8.469C445.943,407.509,442.961,399.773,442.961,399.773z"/>
	</g>
	<g>
		<path fill="#70B4B4" d="M446.937,403.037c5.384,5.058,5.253,17.392-6.957,19.131s-18.137-0.248-18.137-0.248
			s6.46,0.248,6.957-8.696C429.545,402.291,438.737,395.335,446.937,403.037z"/>
	</g>
	<g>
		<g>
			<path fill="#70B4B4" d="M469.212,397.031c0.778,0.778,0.853,1.975,0.168,2.66s-1.883,0.61-2.66-0.168l-14.694-14.694
				c-0.778-0.778-0.853-1.975-0.168-2.66s1.883-0.61,2.66,0.168L469.212,397.031z"/>
		</g>
	</g>
</g>
<g>
	<polygon fill="#99FFFF" points="556.898,315.99 594.627,250.641 632.357,315.99 	"/>
</g>
<g>
	<circle fill="#70B4B4" cx="641.23" cy="259.087" r="23.831"/>
</g>
<g>
	<polygon fill="#F97B62" points="648.464,199.805 637.515,195.27 632.979,184.32 637.515,173.371 648.464,168.835 659.414,173.371 
		663.949,184.32 659.414,195.27 	"/>
</g>
</svg>
