<?xml version="1.0" encoding="utf-8"?>
<!-- Generator: Adobe Illustrator 17.0.0, SVG Export Plug-In . SVG Version: 6.00 Build 0)  -->
<!DOCTYPE svg PUBLIC "-//W3C//DTD SVG 1.1//EN" "http://www.w3.org/Graphics/SVG/1.1/DTD/svg11.dtd">
<svg version="1.1" id="Laag_1" xmlns="http://www.w3.org/2000/svg" xmlns:xlink="http://www.w3.org/1999/xlink" x="0px" y="0px"
	 width="865px" height="565px" viewBox="0 0 865 565" enable-background="new 0 0 865 565" xml:space="preserve">
<g>
	<g>
		<circle fill="#99FFFF" cx="291.552" cy="131.458" r="5.356"/>
	</g>
	<g>
		<circle fill="#99FFFF" cx="334.527" cy="104.911" r="22.227"/>
	</g>
	<g>
		<circle fill="#99FFFF" cx="407.957" cy="137.114" r="36.218"/>
	</g>
	<g>
		<circle fill="#99FFFF" cx="455.662" cy="71.317" r="27.566"/>
	</g>
	<g>
		<circle fill="#F97B62" cx="497.651" cy="105.517" r="16.336"/>
	</g>
	<g>
		<circle fill="#99FFFF" cx="502.557" cy="164.451" r="14.059"/>
	</g>
	<g>
		<circle fill="#99FFFF" cx="376.195" cy="69.481" r="5.892"/>
	</g>
</g>
<g>
	<g>
		<rect x="553.323" y="93.863" fill="#F97B62" width="73.621" height="37.818"/>
	</g>
	<g>
		<circle fill="#F97B62" cx="626.944" cy="112.772" r="18.909"/>
	</g>
	<g>
		<circle fill="#F97B62" cx="553.323" cy="112.772" r="18.909"/>
	</g>
	<g>
		<circle fill="#F97B62" cx="582.942" cy="87.343" r="18.909"/>
	</g>
	<g>
		<circle fill="#F97B62" cx="612.275" cy="91.472" r="18.909"/>
	</g>
	<g>
		<circle fill="#F97B62" cx="598.43" cy="72.02" r="11.193"/>
	</g>
	<g>
		<circle fill="#F97B62" cx="558.01" cy="91.472" r="11.193"/>
	</g>
</g>
<g>
	<g>
		<path fill="#99FFFF" d="M781.754,414.719l-21.977,11.094v-24.619c-13.599,0-24.618,11.018-24.618,24.619
			c0,13.6,11.019,24.618,24.618,24.618s24.618-11.018,24.618-24.618C784.395,421.82,783.439,418.053,781.754,414.719z"/>
	</g>
	<g>
		<path fill="#F97B62" d="M781.754,414.719c-4.057-8.023-12.37-13.525-21.977-13.525v24.619L781.754,414.719z"/>
	</g>
</g>
<g>
	<g>
		<polygon fill="#70B4B4" points="730.64,349.509 700.196,331.933 730.45,314.466 760.893,332.042 		"/>
	</g>
	<g>
		<polygon fill="#99FFFF" points="730.64,384.442 700.196,366.866 700.196,331.933 730.64,349.509 		"/>
	</g>
	<g>
		<polygon fill="#85DADA" points="760.893,366.976 730.64,384.442 730.64,349.509 760.893,332.042 		"/>
	</g>
</g>
<g>
	<g>
		<polygon fill="#5C8F8F" points="771.096,297.261 751.185,285.765 770.971,274.342 790.882,285.837 		"/>
	</g>
	<g>
		<polygon fill="#99FFFF" points="771.096,320.108 751.185,308.613 751.185,285.765 771.096,297.261 		"/>
	</g>
	<g>
		<polygon fill="#70B4B4" points="790.882,308.684 771.096,320.108 771.096,297.261 790.882,285.837 		"/>
	</g>
</g>
<g>
	<g>
		<polygon fill="#F97B62" points="789.982,338.243 775.034,329.613 789.889,321.036 804.837,329.667 		"/>
	</g>
	<g>
		<polygon fill="#85DADA" points="789.982,355.397 775.034,346.766 775.034,329.613 789.982,338.243 		"/>
	</g>
	<g>
		<polygon fill="#70B4B4" points="804.837,346.82 789.982,355.397 789.982,338.243 804.837,329.667 		"/>
	</g>
</g>
<g>
	<g>
		<polygon fill="#476969" points="779.139,376.907 768.492,370.76 779.073,364.651 789.721,370.798 		"/>
	</g>
	<g>
		<polygon fill="#70B4B4" points="779.139,389.125 768.492,382.978 768.492,370.76 779.139,376.907 		"/>
	</g>
	<g>
		<polygon fill="#5C8F8F" points="789.721,383.016 779.139,389.125 779.139,376.907 789.721,370.798 		"/>
	</g>
</g>
<g>
	<g>
		
			<rect x="87.612" y="214.882" transform="matrix(-0.9047 0.426 -0.426 -0.9047 361.8512 457.9707)" fill="#70B4B4" width="84.197" height="109.138"/>
	</g>
	<g>
		<g>
			<g>
				<path fill="#85DADA" d="M79.894,229.087c-0.442-0.939-1.568-1.348-2.501-0.909c-0.933,0.439-1.335,1.567-0.892,2.507
					l2.706,5.746c0.442,0.939,1.568,1.348,2.501,0.909c0.933-0.439,1.335-1.567,0.892-2.507L79.894,229.087z"/>
			</g>
		</g>
		<g>
			<g>
				<path fill="#85DADA" d="M87.585,225.466c-0.442-0.939-1.568-1.348-2.501-0.909c-0.933,0.439-1.335,1.567-0.892,2.507
					l2.706,5.746c0.442,0.939,1.568,1.348,2.501,0.909c0.933-0.439,1.335-1.567,0.892-2.507L87.585,225.466z"/>
			</g>
		</g>
		<g>
			<g>
				<path fill="#85DADA" d="M95.276,221.844c-0.442-0.939-1.568-1.348-2.501-0.909c-0.933,0.439-1.335,1.567-0.892,2.507
					l2.706,5.746c0.442,0.939,1.568,1.348,2.501,0.909c0.933-0.439,1.335-1.567,0.892-2.507L95.276,221.844z"/>
			</g>
		</g>
		<g>
			<g>
				<path fill="#85DADA" d="M102.967,218.222c-0.442-0.939-1.568-1.348-2.501-0.909c-0.933,0.439-1.335,1.567-0.892,2.507
					l2.706,5.746c0.442,0.939,1.568,1.348,2.501,0.909c0.933-0.439,1.335-1.567,0.892-2.507L102.967,218.222z"/>
			</g>
		</g>
		<g>
			<g>
				<path fill="#85DADA" d="M110.658,214.601c-0.442-0.939-1.568-1.348-2.501-0.909c-0.933,0.439-1.335,1.567-0.892,2.507
					l2.706,5.746c0.442,0.939,1.568,1.348,2.501,0.909c0.933-0.439,1.335-1.567,0.892-2.507L110.658,214.601z"/>
			</g>
		</g>
		<g>
			<g>
				<path fill="#85DADA" d="M118.35,210.979c-0.442-0.939-1.568-1.348-2.501-0.909c-0.933,0.439-1.335,1.567-0.892,2.507
					l2.706,5.746c0.442,0.939,1.568,1.348,2.501,0.909c0.933-0.439,1.335-1.567,0.892-2.507L118.35,210.979z"/>
			</g>
		</g>
		<g>
			<g>
				<path fill="#85DADA" d="M126.041,207.357c-0.442-0.939-1.568-1.348-2.501-0.909c-0.933,0.439-1.335,1.567-0.892,2.507
					l2.706,5.746c0.442,0.939,1.568,1.348,2.501,0.909c0.933-0.439,1.335-1.567,0.892-2.507L126.041,207.357z"/>
			</g>
		</g>
		<g>
			<g>
				<path fill="#85DADA" d="M133.732,203.736c-0.442-0.939-1.568-1.348-2.501-0.909c-0.933,0.439-1.335,1.567-0.892,2.507
					l2.706,5.746c0.442,0.939,1.568,1.348,2.501,0.909c0.933-0.439,1.335-1.567,0.892-2.507L133.732,203.736z"/>
			</g>
		</g>
		<g>
			<g>
				<path fill="#85DADA" d="M141.423,200.114c-0.442-0.939-1.568-1.348-2.501-0.909c-0.933,0.439-1.335,1.567-0.892,2.507
					l2.706,5.746c0.442,0.939,1.568,1.348,2.501,0.909c0.933-0.439,1.335-1.567,0.892-2.507L141.423,200.114z"/>
			</g>
		</g>
		<g>
			<g>
				<path fill="#85DADA" d="M72.203,232.709c-0.442-0.939-1.568-1.348-2.501-0.909c-0.933,0.439-1.335,1.567-0.892,2.507
					l2.706,5.746c0.442,0.939,1.568,1.348,2.501,0.909c0.933-0.439,1.335-1.567,0.892-2.507L72.203,232.709z"/>
			</g>
		</g>
	</g>
	<g>
		<g>
			
				<rect x="113.614" y="208.367" transform="matrix(0.426 0.9047 -0.9047 0.426 283.5565 32.9444)" fill="#85DADA" width="4.404" height="63.133"/>
		</g>
		<g>
			
				<rect x="117.369" y="216.34" transform="matrix(0.426 0.9047 -0.9047 0.426 292.9261 34.124)" fill="#85DADA" width="4.404" height="63.133"/>
		</g>
		<g>
			
				<rect x="121.124" y="224.314" transform="matrix(0.426 0.9047 -0.9047 0.426 302.2959 35.3042)" fill="#85DADA" width="4.404" height="63.133"/>
		</g>
		<g>
			
				<rect x="124.878" y="232.288" transform="matrix(0.426 0.9047 -0.9047 0.426 311.6653 36.485)" fill="#85DADA" width="4.404" height="63.134"/>
		</g>
		<g>
			
				<rect x="128.633" y="240.262" transform="matrix(0.426 0.9047 -0.9047 0.426 321.0349 37.665)" fill="#85DADA" width="4.404" height="63.134"/>
		</g>
		<g>
			
				<rect x="136.143" y="256.21" transform="matrix(0.426 0.9047 -0.9047 0.426 339.7743 40.0248)" fill="#85DADA" width="4.404" height="63.133"/>
		</g>
		<g>
			
				<rect x="132.388" y="248.236" transform="matrix(0.426 0.9047 -0.9047 0.426 330.4045 38.845)" fill="#85DADA" width="4.404" height="63.134"/>
		</g>
		<g>
			
				<rect x="139.897" y="264.184" transform="matrix(0.426 0.9047 -0.9047 0.426 349.1439 41.2057)" fill="#85DADA" width="4.404" height="63.134"/>
		</g>
	</g>
</g>
<g>
	<g>
		<path fill="#85DADA" d="M664.564,297.609c0.502-2.112-0.799-4.31-2.891-4.886l-5.04-1.388c-2.092-0.576-4.336,0.647-4.985,2.718
			l-0.782,2.496l13.093,3.604L664.564,297.609z"/>
	</g>
	<g>
		<path fill="#5C8F8F" d="M650.866,296.549l-13.707,43.742c-0.649,2.071,0.532,4.237,2.625,4.813l8.845,2.435
			c2.093,0.576,4.216-0.68,4.718-2.792l10.612-44.594L650.866,296.549z"/>
	</g>
	<g>
		<circle fill="#70B4B4" cx="667.137" cy="263.026" r="31.643"/>
	</g>
	<g>
		<path fill="#85DADA" d="M693.23,270.21c3.967-14.411-4.499-29.309-18.909-33.276c-7.522-2.071-15.174-0.749-21.338,3.033
			c5.864-3.076,12.86-4.026,19.748-2.13c14.411,3.967,22.877,18.865,18.909,33.276c-1.896,6.888-6.293,12.412-11.937,15.875
			C686.107,283.629,691.159,277.732,693.23,270.21z"/>
	</g>
	<g>
		<path fill="#99FFFF" d="M672.731,237.837c-6.888-1.896-13.884-0.946-19.748,2.13c-5.645,3.463-10.042,8.988-11.938,15.876
			c-3.967,14.411,4.499,29.309,18.909,33.276c6.888,1.896,13.885,0.946,19.749-2.13c5.644-3.463,10.041-8.987,11.937-15.875
			C695.607,256.702,687.141,241.804,672.731,237.837z"/>
	</g>
</g>
<g>
	<g>
		<g>
			<path fill="#5C8F8F" d="M766.989,152.385c0.865-3.185-1.088-6.249-4.34-6.809l-116.377-20.057
				c-3.252-0.56-6.034,1.678-6.182,4.975l-3.162,70.459c-0.148,3.297,2.406,6.357,5.676,6.801l99.506,13.514
				c3.27,0.444,6.653-1.798,7.518-4.983L766.989,152.385z"/>
		</g>
	</g>
	<g>
		<polygon fill="#70B4B4" points="641.711,116.657 639.008,132.342 645.932,133.535 664.321,120.553 		"/>
	</g>
	<g>
		<polygon fill="#70B4B4" points="771.034,138.945 748.263,135.021 729.875,148.003 757.856,152.825 770.135,144.156 		"/>
	</g>
	<g>
		<polygon fill="#70B4B4" points="770.135,144.156 757.856,152.825 768.33,154.631 		"/>
	</g>
	<g>
		<polygon fill="#70B4B4" points="692.302,125.376 673.913,138.358 701.894,143.18 720.283,130.198 		"/>
	</g>
	<g>
		<polygon fill="#85DADA" points="720.283,130.198 701.894,143.18 729.875,148.003 748.263,135.021 		"/>
	</g>
	<g>
		<polygon fill="#85DADA" points="664.321,120.553 645.932,133.535 673.913,138.358 692.302,125.376 		"/>
	</g>
	<g>
		<polygon fill="#85DADA" points="652.471,100.829 641.755,111.369 641.711,116.657 664.816,116.847 680.863,101.063 		"/>
	</g>
	<g>
		<polygon fill="#70B4B4" points="641.842,100.741 641.755,111.369 652.471,100.829 		"/>
	</g>
	<g>
		<polygon fill="#85DADA" points="772.936,117.74 773.067,101.825 766.041,101.767 749.993,117.551 		"/>
	</g>
	<g>
		<polygon fill="#70B4B4" points="709.256,101.298 680.863,101.063 664.816,116.847 693.208,117.082 		"/>
	</g>
	<g>
		<polygon fill="#85DADA" points="721.601,117.316 737.648,101.532 709.256,101.298 693.208,117.082 		"/>
	</g>
	<g>
		<polygon fill="#70B4B4" points="749.993,117.551 766.041,101.767 737.648,101.532 721.601,117.316 		"/>
	</g>
	<g>
		<circle fill="#85DADA" cx="641.711" cy="116.657" r="8.121"/>
	</g>
	<g>
		<circle fill="#F97B62" cx="641.711" cy="116.657" r="3.573"/>
	</g>
	<g>
		<polygon fill="#99FFFF" points="734.068,180.161 667.178,168.632 668.614,151.269 738.43,163.885 		"/>
	</g>
</g>
<g>
	<g>
		<polygon fill="#5C8F8F" points="467.703,382.586 433.707,382.586 399.711,382.586 391.921,422.484 433.707,422.484 
			475.493,422.484 		"/>
	</g>
	<g>
		<path fill="#85DADA" d="M477.618,418.942c-5.194,0-43.911,0-43.911,0s-38.717,0-43.911,0s-6.138,2.125-6.138,7.082h50.049h50.049
			C483.756,421.067,482.812,418.942,477.618,418.942z"/>
	</g>
	<g>
		<path fill="#5C8F8F" d="M616.233,134.61c0-6.977-5.709-12.686-12.686-12.686H262.923c-6.977,0-12.686,5.709-12.686,12.686v218.519
			h365.996L616.233,134.61L616.233,134.61z"/>
	</g>
	<g>
		<rect x="266.094" y="136.513" fill="#70B4B4" width="335.549" height="201.393"/>
	</g>
	<g>
		<path fill="#85DADA" d="M250.237,353.129v22.201c0,6.977,5.709,12.686,12.686,12.686h340.624c6.977,0,12.686-5.709,12.686-12.686
			v-22.201H250.237z"/>
	</g>
	<g>
		<rect x="266.025" y="136.513" fill="#70B4B4" width="335.618" height="200.93"/>
	</g>
	<g>
		<g>
			<circle fill="#99FFFF" cx="433.869" cy="225.484" r="69.074"/>
		</g>
		<g>
			<polygon fill="#F97B62" points="409.86,186.927 478.239,226.408 409.86,265.889 			"/>
		</g>
	</g>
	<g>
		<rect x="266.025" y="317.528" fill="#85DADA" width="336.209" height="20"/>
	</g>
	<g>
		<g>
			<rect x="269.968" y="321.09" fill="#5C8F8F" width="4.667" height="12.876"/>
		</g>
		<g>
			<rect x="277.536" y="321.09" fill="#5C8F8F" width="4.667" height="12.876"/>
		</g>
	</g>
	<g>
		<rect x="290.401" y="322.528" fill="#5C8F8F" width="306.088" height="10"/>
	</g>
</g>
<g>
	<g>
		<polygon fill="#85DADA" points="714.358,284.344 723,270.909 732.955,290.363 738.416,287.569 709.872,231.789 		"/>
	</g>
	<g>
		<polygon fill="#70B4B4" points="709.872,231.789 738.416,287.569 743.878,284.774 733.922,265.319 749.878,266.168 		"/>
	</g>
</g>
<g>
	<g>
		<rect x="560.618" y="426.974" fill="#5C8F8F" width="162.713" height="100.202"/>
	</g>
	<g>
		<rect x="599.954" y="443.573" fill="#476969" width="106.83" height="70.733"/>
	</g>
	<g>
		<rect x="575.947" y="496.623" fill="#70B4B4" width="24.007" height="17.683"/>
	</g>
	<g>
		<rect x="575.947" y="443.573" fill="#85DADA" width="24.007" height="17.683"/>
	</g>
	<g>
		<rect x="575.947" y="478.939" fill="#85DADA" width="24.007" height="17.683"/>
	</g>
	<g>
		<rect x="575.947" y="461.256" fill="#70B4B4" width="24.007" height="17.683"/>
	</g>
</g>
<g>
	<g>
		<circle fill="#85DADA" cx="779.777" cy="482.535" r="20.061"/>
	</g>
	<g>
		<circle fill="#5C8F8F" cx="788.161" cy="510.79" r="20.061"/>
	</g>
	<g>
		
			<rect x="763.933" y="481.915" transform="matrix(-0.9587 0.2845 -0.2845 -0.9587 1676.886 749.7395)" fill="#5C8F8F" width="40.123" height="29.473"/>
	</g>
	<g>
		<polygon fill="#99FFFF" points="760.829,489.201 760.261,487.283 778.534,481.861 773.111,463.587 775.029,463.019 
			781.021,483.209 		"/>
	</g>
	<g>
		
			<rect x="777.14" y="475.672" transform="matrix(-0.9587 0.2845 -0.2845 -0.9587 1664.655 723.263)" fill="#F97B62" width="5.323" height="13.707"/>
	</g>
</g>
<g>
	<g>
		<g>
			<path fill="#70B4B4" d="M534.584,526.906c-0.102,2.748-2.436,5.004-5.186,5.013l-194.08,0.658c-2.75,0.009-5-2.233-5-4.983
				v-76.442c0-2.75,2.249-4.95,4.999-4.889l197.104,4.368c2.749,0.061,4.915,2.359,4.813,5.107L534.584,526.906z"/>
		</g>
	</g>
	<g>
		<g>
			<rect x="337.344" y="459.065" fill="#85DADA" width="12.812" height="12.202"/>
		</g>
		<g>
			<rect x="352.316" y="459.065" fill="#85DADA" width="12.812" height="12.202"/>
		</g>
		<g>
			<rect x="367.29" y="459.065" fill="#85DADA" width="12.812" height="12.202"/>
		</g>
		<g>
			<rect x="382.262" y="459.065" fill="#85DADA" width="12.812" height="12.202"/>
		</g>
		<g>
			<rect x="397.235" y="459.065" fill="#85DADA" width="12.812" height="12.202"/>
		</g>
		<g>
			<rect x="412.208" y="459.065" fill="#85DADA" width="12.812" height="12.202"/>
		</g>
		<g>
			<rect x="427.18" y="459.065" fill="#85DADA" width="12.812" height="12.202"/>
		</g>
		<g>
			<rect x="442.153" y="459.065" fill="#85DADA" width="12.812" height="12.202"/>
		</g>
		<g>
			<rect x="457.126" y="459.065" fill="#85DADA" width="12.812" height="12.202"/>
		</g>
	</g>
	<g>
		<g>
			<rect x="485.673" y="459.065" fill="#85DADA" width="12.812" height="12.202"/>
		</g>
		<g>
			<rect x="500.646" y="459.065" fill="#85DADA" width="12.812" height="12.202"/>
		</g>
		<g>
			<rect x="515.619" y="459.065" fill="#85DADA" width="12.812" height="12.202"/>
		</g>
	</g>
	<g>
		<g>
			<rect x="485.673" y="475.944" fill="#85DADA" width="12.812" height="12.202"/>
		</g>
		<g>
			<rect x="500.646" y="475.944" fill="#85DADA" width="12.812" height="12.202"/>
		</g>
		<g>
			<rect x="515.619" y="475.944" fill="#85DADA" width="12.812" height="12.202"/>
		</g>
	</g>
	<g>
		<g>
			<rect x="500.646" y="492.62" fill="#85DADA" width="12.812" height="12.202"/>
		</g>
	</g>
	<g>
		<g>
			<rect x="485.673" y="509.703" fill="#85DADA" width="12.812" height="12.202"/>
		</g>
		<g>
			<rect x="500.646" y="509.703" fill="#85DADA" width="12.812" height="12.202"/>
		</g>
		<g>
			<rect x="515.619" y="509.703" fill="#85DADA" width="12.812" height="12.202"/>
		</g>
	</g>
	<g>
		<g>
			<rect x="337.344" y="475.944" fill="#85DADA" width="12.812" height="12.202"/>
		</g>
		<g>
			<rect x="352.316" y="475.944" fill="#85DADA" width="12.812" height="12.202"/>
		</g>
		<g>
			<rect x="367.29" y="475.944" fill="#85DADA" width="12.812" height="12.202"/>
		</g>
		<g>
			<rect x="382.262" y="475.944" fill="#85DADA" width="12.812" height="12.202"/>
		</g>
		<g>
			<rect x="397.235" y="475.944" fill="#85DADA" width="12.812" height="12.202"/>
		</g>
		<g>
			<rect x="412.208" y="475.944" fill="#85DADA" width="12.812" height="12.202"/>
		</g>
		<g>
			<rect x="427.18" y="475.944" fill="#85DADA" width="12.812" height="12.202"/>
		</g>
		<g>
			<rect x="442.153" y="475.944" fill="#85DADA" width="12.812" height="12.202"/>
		</g>
		<g>
			<rect x="457.126" y="475.944" fill="#85DADA" width="12.812" height="12.202"/>
		</g>
	</g>
	<g>
		<g>
			<rect x="337.344" y="492.62" fill="#85DADA" width="12.812" height="12.202"/>
		</g>
		<g>
			<rect x="352.316" y="492.62" fill="#85DADA" width="12.812" height="12.202"/>
		</g>
		<g>
			<rect x="367.29" y="492.62" fill="#85DADA" width="12.812" height="12.202"/>
		</g>
		<g>
			<rect x="382.262" y="492.62" fill="#85DADA" width="12.812" height="12.202"/>
		</g>
		<g>
			<rect x="397.235" y="492.62" fill="#85DADA" width="12.812" height="12.202"/>
		</g>
		<g>
			<rect x="412.208" y="492.62" fill="#85DADA" width="12.812" height="12.202"/>
		</g>
		<g>
			<rect x="427.18" y="492.62" fill="#85DADA" width="12.812" height="12.202"/>
		</g>
		<g>
			<rect x="442.153" y="492.62" fill="#85DADA" width="12.812" height="12.202"/>
		</g>
		<g>
			<rect x="457.126" y="492.62" fill="#85DADA" width="12.812" height="12.202"/>
		</g>
	</g>
	<g>
		<g>
			<rect x="337.344" y="509.703" fill="#85DADA" width="12.812" height="12.202"/>
		</g>
		<g>
			<rect x="352.316" y="509.703" fill="#85DADA" width="12.812" height="12.202"/>
		</g>
		<g>
			<rect x="367.289" y="509.703" fill="#85DADA" width="72.703" height="12.202"/>
		</g>
		<g>
			<rect x="442.153" y="509.703" fill="#85DADA" width="12.812" height="12.202"/>
		</g>
		<g>
			<rect x="457.126" y="509.703" fill="#85DADA" width="12.812" height="12.202"/>
		</g>
	</g>
</g>
<g>
	<g>
		<polygon fill="#85DADA" points="666.821,442.925 655.189,457.376 651.398,439.216 		"/>
	</g>
	<g>
		<path fill="#70B4B4" d="M659.113,441.057l7.712,1.854c-4.282-8.496,27.749-115.17,19.985-117.037
			c-7.765-1.867-27.732,107.708-35.408,113.329L659.113,441.057z"/>
	</g>
</g>
<g>
	<g>
		<path fill="#F97B62" d="M213.437,278.052c-4.895-3.841-3.841-14.734-4.368-17.018s-0.527-2.284-0.527-2.284
			s3.514-58.679,3.865-63.598c0.351-4.919,12.122-9.663,13.001,0.351c0.878,10.014,0.878,10.014,0.878,10.014l3.49,56.195
			c0,0-1.916,14.931-5.338,17.316C221.015,281.414,213.437,278.052,213.437,278.052z"/>
	</g>
	<g>
		<path fill="#70B4B4" d="M218.556,277.549c7.384-0.231,16.013,8.584,8.609,18.447s-13.001,12.649-13.001,12.649
			s4.743-4.392-1.23-11.068C205.731,289.32,207.312,277.9,218.556,277.549z"/>
	</g>
	<g>
		<g>
			<path fill="#70B4B4" d="M230.06,257.551c1.1,0,2,0.793,2,1.762s-0.9,1.762-2,1.762h-20.781c-1.1,0-2-0.793-2-1.762
				s0.9-1.762,2-1.762H230.06z"/>
		</g>
	</g>
</g>
<g>
	<g>
		<polygon fill="#476969" points="233.134,142.872 241.298,102.759 233.629,92.231 215.882,79.375 203.622,76.704 173.302,98.793 
			171.202,107.414 174.896,126.64 173.56,132.77 180.616,142.456 187.661,137.968 194.02,137.848 225.41,113.689 228.574,141.037 
			213.323,142.526 211.802,148.099 227.816,150.614 		"/>
	</g>
	<g>
		<polygon fill="#85DADA" points="230.723,98.86 185.892,130.232 178.939,105.645 206.732,85.397 213.704,86.119 		"/>
	</g>
	<g>
		<polygon fill="#476969" points="170.527,171.079 124.229,188.049 116.559,177.521 109.762,156.688 110.977,144.199 
			141.297,122.11 150.147,122.754 167.315,132.163 173.56,132.77 180.616,142.456 174.185,147.786 172.122,153.802 139.503,176.276 
			170.178,166.176 176.27,152.115 182.042,152.376 179.527,168.39 		"/>
	</g>
	<g>
		<polygon fill="#F97B62" points="123.76,176.787 167.363,143.731 146.092,129.575 118.298,149.824 116.848,156.682 		"/>
	</g>
</g>
<g>
	<g>
		<path fill="#99FFFF" d="M142.641,388.207c-5.708-18.62-25.429-29.087-44.049-23.38l0,0c-18.62,5.708-29.088,25.429-23.38,44.049
			l0,0c5.708,18.62,25.429,29.087,44.049,23.38l0,0C137.882,426.548,148.349,406.827,142.641,388.207L142.641,388.207z"/>
	</g>
	<g>
		<path fill="#99FFFF" d="M217.425,349.704c-6.745-22.004-30.05-34.373-52.054-27.628l0,0c-22.004,6.745-34.373,30.05-27.628,52.054
			l0,0c6.745,22.004,30.05,34.373,52.054,27.628l0,0C211.8,395.013,224.17,371.708,217.425,349.704L217.425,349.704z"/>
	</g>
	<g>
		<polygon fill="#85DADA" points="216.532,433.414 221.203,448.652 225.874,463.889 289.768,466.703 278.821,430.989 
			262.744,378.452 		"/>
	</g>
	<g>
		<polygon fill="#70B4B4" points="276.65,352.461 248.839,367.696 283.705,482.365 315.877,481.355 		"/>
	</g>
	<g>
		<g>
			<path fill="#5C8F8F" d="M240.637,495.095c0.247,2.739-1.739,5.5-4.415,6.137l-105.584,25.114
				c-2.675,0.636-5.881-0.85-7.123-3.304l-37.802-74.667c-1.242-2.453-0.164-5.282,2.396-6.286l138.031-54.136
				c2.56-1.004,4.857,0.415,5.104,3.154L240.637,495.095z"/>
		</g>
	</g>
	<g>
		<path fill="#85DADA" d="M211.495,431.844c-1.227-4.002-5.465-6.252-9.467-5.025l0,0c-4.002,1.227-6.252,5.465-5.025,9.467l0,0
			c1.227,4.002,5.465,6.252,9.467,5.025l0,0C210.472,440.084,212.722,435.846,211.495,431.844L211.495,431.844z"/>
	</g>
	<g>
		<path fill="#85DADA" d="M200.878,460.012c-1.227-4.002-5.465-6.252-9.467-5.025l0,0c-4.002,1.227-6.252,5.465-5.025,9.467l0,0
			c1.227,4.002,5.465,6.252,9.467,5.025l0,0C199.855,468.252,202.105,464.014,200.878,460.012L200.878,460.012z"/>
	</g>
	<g>
		<path fill="#85DADA" d="M108.983,375.654c-1.227-4.002-5.465-6.252-9.467-5.025l0,0c-4.002,1.227-6.252,5.465-5.025,9.467l0,0
			c1.227,4.002,5.465,6.252,9.467,5.025l0,0C107.96,383.895,110.209,379.656,108.983,375.654L108.983,375.654z"/>
	</g>
	<g>
		<path fill="#85DADA" d="M133.578,385.066c-1.227-4.002-5.465-6.252-9.467-5.025l0,0c-4.002,1.227-6.252,5.465-5.025,9.467l0,0
			c1.227,4.002,5.465,6.252,9.467,5.025l0,0C132.555,393.306,134.804,389.067,133.578,385.066L133.578,385.066z"/>
	</g>
	<g>
		<path fill="#85DADA" d="M133.556,408.008c-1.227-4.002-5.465-6.252-9.467-5.025l0,0c-4.002,1.227-6.252,5.465-5.025,9.467l0,0
			c1.227,4.002,5.465,6.252,9.467,5.025l0,0C132.533,416.249,134.783,412.01,133.556,408.008L133.556,408.008z"/>
	</g>
	<g>
		<path fill="#85DADA" d="M107.452,416.01c-1.227-4.002-5.465-6.252-9.467-5.025l0,0c-4.002,1.227-6.252,5.465-5.025,9.467l0,0
			c1.227,4.002,5.465,6.252,9.467,5.025l0,0C106.429,424.251,108.678,420.012,107.452,416.01L107.452,416.01z"/>
	</g>
	<g>
		<path fill="#85DADA" d="M95.538,396.726c-1.227-4.002-5.465-6.252-9.467-5.025l0,0c-4.002,1.227-6.252,5.465-5.025,9.467l0,0
			c1.227,4.002,5.465,6.252,9.467,5.025l0,0C94.515,404.967,96.765,400.728,95.538,396.726L95.538,396.726z"/>
	</g>
	<g>
		<path fill="#FFFFFF" d="M114.113,396.952c-0.878-2.864-3.912-4.474-6.776-3.596l0,0c-2.864,0.878-4.474,3.912-3.596,6.776l0,0
			c0.878,2.864,3.912,4.474,6.776,3.596l0,0C113.381,402.849,114.991,399.816,114.113,396.952L114.113,396.952z"/>
	</g>
	<g>
		<path fill="#85DADA" d="M177.65,334.871c-1.45-4.729-6.459-7.388-11.188-5.938l0,0c-4.729,1.45-7.388,6.459-5.938,11.188l0,0
			c1.45,4.729,6.459,7.388,11.188,5.938l0,0C176.441,344.609,179.099,339.6,177.65,334.871L177.65,334.871z"/>
	</g>
	<g>
		<path fill="#85DADA" d="M206.714,345.992c-1.45-4.729-6.459-7.388-11.188-5.938l0,0c-4.729,1.45-7.388,6.459-5.938,11.188l0,0
			c1.45,4.729,6.459,7.388,11.188,5.938l0,0C205.505,355.73,208.164,350.721,206.714,345.992L206.714,345.992z"/>
	</g>
	<g>
		<path fill="#85DADA" d="M206.688,373.104c-1.45-4.729-6.459-7.388-11.188-5.938l0,0c-4.729,1.45-7.388,6.459-5.938,11.188l0,0
			c1.45,4.729,6.459,7.388,11.188,5.938l0,0C205.48,382.842,208.138,377.833,206.688,373.104L206.688,373.104z"/>
	</g>
	<g>
		<path fill="#85DADA" d="M175.841,382.56c-1.45-4.729-6.459-7.388-11.188-5.938l0,0c-4.729,1.45-7.388,6.459-5.938,11.188l0,0
			c1.45,4.729,6.459,7.388,11.188,5.938l0,0C174.632,392.298,177.29,387.289,175.841,382.56L175.841,382.56z"/>
	</g>
	<g>
		<path fill="#85DADA" d="M161.762,359.772c-1.45-4.729-6.459-7.388-11.188-5.938l0,0c-4.729,1.45-7.388,6.459-5.938,11.188l0,0
			c1.45,4.729,6.459,7.388,11.188,5.938l0,0C160.553,369.51,163.212,364.501,161.762,359.772L161.762,359.772z"/>
	</g>
	<g>
		<path fill="#FFFFFF" d="M183.712,360.038c-1.038-3.385-4.622-5.287-8.007-4.25l0,0c-3.385,1.038-5.287,4.622-4.25,8.007l0,0
			c1.038,3.385,4.622,5.287,8.007,4.25l0,0C182.847,367.008,184.75,363.423,183.712,360.038L183.712,360.038z"/>
	</g>
	<g>
		<path fill="#99FFFF" d="M218.476,454.617c-1.227-4.002-5.465-6.252-9.467-5.025l0,0c-4.002,1.227-6.252,5.465-5.025,9.467l0,0
			c1.227,4.002,5.465,6.252,9.467,5.025l0,0C217.453,462.858,219.703,458.619,218.476,454.617L218.476,454.617z"/>
	</g>
	<g>
		<path fill="#85DADA" d="M223.877,472.238c-1.227-4.002-5.465-6.252-9.467-5.025l0,0c-4.002,1.227-6.252,5.465-5.025,9.467l0,0
			c1.227,4.002,5.465,6.252,9.467,5.025l0,0C222.854,480.478,225.104,476.24,223.877,472.238L223.877,472.238z"/>
	</g>
	<g>
		<path fill="#99FFFF" d="M206.28,477.632c-1.227-4.002-5.465-6.252-9.467-5.025l0,0c-4.002,1.227-6.252,5.465-5.025,9.467l0,0
			c1.227,4.002,5.465,6.252,9.467,5.025l0,0C205.257,485.873,207.506,481.634,206.28,477.632L206.28,477.632z"/>
	</g>
	<g>
		<path fill="#85DADA" d="M175.804,434.858l-94.666,29.019l4.442,14.492l94.666-29.019c4.002-1.227,6.252-5.465,5.025-9.467
			C184.044,435.881,179.806,433.631,175.804,434.858z"/>
	</g>
	<g>
		<polygon fill="#70B4B4" points="64.447,461.255 68.836,475.575 73.226,489.894 85.58,478.369 83.359,471.123 81.138,463.876 		"/>
	</g>
	<g>
		
			<rect x="123.54" y="470.742" transform="matrix(-0.9561 0.2931 -0.2931 -0.9561 438.4606 901.9604)" fill="#F97B62" width="56.232" height="26.173"/>
	</g>
</g>
</svg>
