<?xml version="1.0" encoding="utf-8"?>
<!-- Generator: Adobe Illustrator 17.0.0, SVG Export Plug-In . SVG Version: 6.00 Build 0)  -->
<!DOCTYPE svg PUBLIC "-//W3C//DTD SVG 1.1//EN" "http://www.w3.org/Graphics/SVG/1.1/DTD/svg11.dtd">
<svg version="1.1" id="Laag_1" xmlns="http://www.w3.org/2000/svg" xmlns:xlink="http://www.w3.org/1999/xlink" x="0px" y="0px"
	 width="1920px" height="1080px" viewBox="0 0 1920 1080" enable-background="new 0 0 1920 1080" xml:space="preserve">
<g>
	<g>
		<defs>
			<rect id="SVGID_1_" width="1920" height="1080"/>
		</defs>
		<clipPath id="SVGID_2_">
			<use xlink:href="#SVGID_1_"  overflow="visible"/>
		</clipPath>
		<g clip-path="url(#SVGID_2_)">
			<linearGradient id="SVGID_3_" gradientUnits="userSpaceOnUse" x1="-569.516" y1="345.419" x2="11535.0967" y2="345.419">
				<stop  offset="0.0026" style="stop-color:#E1CDAA"/>
				<stop  offset="1" style="stop-color:#DED6BC"/>
			</linearGradient>
			<path fill="url(#SVGID_3_)" d="M1885.604-110.858c0,0-1.577-0.944-2.349-1.453c-18.003-11.88-24.993-33.909-56.327-52
				c-32.677-18.866-51.443,3.369-109.879-26.794c-15.592-8.048-30.68-14.405-45.045-19.76v-0.034L1435.4-345.842v20.557
				L965.346-51.205l-37.261-21.251V-51.9L416.577,246.35l-17.822-10.164L164.631,394.303l-734.147,424.806
				c237.874,137.797,455.5,217.571,455.5,217.571l921.829-535.553l46.442-26.814l263.395-152.071l286.16-141.536
				c0,0-1.263-0.891-3.246-2.29l224.402-129.559L1885.604-110.858z"/>
			
				<linearGradient id="SVGID_4_" gradientUnits="userSpaceOnUse" x1="38.866" y1="1107.5029" x2="346.3834" y2="574.8671" gradientTransform="matrix(1 0 0 -1 0.14 1079.0549)">
				<stop  offset="0" style="stop-color:#4673AE"/>
				<stop  offset="1" style="stop-color:#8891AF"/>
			</linearGradient>
			<path fill="url(#SVGID_4_)" d="M805.565-471.021L53.059-30.857L-490.89,285.581l-543.961,316.445
				c0,0,612.851,341.333,612.863,341.326l-0.012,0.041c2.686-1.499,5.371-2.998,8.057-4.497
				c46.011-25.687,92.014-51.387,138.008-77.105c28.662-16.027,57.321-32.06,85.969-48.115
				c13.108-7.346,25.737-13.532,36.007-24.558c13.015-13.973,28.451-22.841,43.27-34.888c8.586-6.98,16.131-16.681,25.14-23.341
				c13.11-9.692,29.908-17.472,43.808-26.346c71.098-45.387,146.423-84.196,217.048-131.064
				c15.562-10.327,28.561-20.507,45.522-29.426c14.194-7.464,29.062-13.877,43.461-20.847
				c30.375-14.703,63.856-29.849,91.254-48.598c39.388-26.955,84.844-59.787,131.488-72.402
				c39.929-10.799,78.11-22.788,113.608-45.881c30.414-19.786,41.264-34.887,59.927-42.763s64.619-36.635,98.293-55.976
				c42.03-24.14,65.038-36.672,97.549-55.912c41.526-24.576,64.711-43.939,99.414-73.943c19.1-16.513,43.035-24.168,65.981-34.186
				c15.807-6.901,31.175-14.822,46.964-21.787c22.764-10.042,43.899-14.711,64.081-29.644
				c15.942-11.796,35.273-23.838,52.666-34.538c11.081-6.816,22.565-13.366,33.843-20.01
				c50.219-29.581,100.438-59.162,150.658-88.743c4.506-2.654,43.96-30.984,48.401-28.51
				C1418.415-129.689,805.565-471.021,805.565-471.021z"/>
			<path fill="#DDC7A8" d="M-182.784,930.316c0,0-93.133,9.905-61.01-7.632c0,0,622.825-345.9,635.101-349.497
				c8.329-2.441,363.542-196.901,622.728-339.413c16.613-9.135,43.425-8.142,54.281-2.221
				C1018.229,260.914-182.784,930.316-182.784,930.316z"/>
			<path fill="#DDC7A8" d="M1168.078,189.121c0,0-72.008,11.382-39.885-6.154c0,0,244.381-144.49,503.567-287.003
				c16.614-9.135,13.838,3.03,24.694,8.952C1606.368-65.724,1168.078,189.121,1168.078,189.121z"/>
			
				<linearGradient id="SVGID_5_" gradientUnits="userSpaceOnUse" x1="1055.0396" y1="747.3195" x2="1596.1498" y2="-189.911" gradientTransform="matrix(1 0 0 -1 0.14 1079.0549)">
				<stop  offset="0" style="stop-color:#BDB77D"/>
				<stop  offset="1" style="stop-color:#83A168"/>
			</linearGradient>
			<path fill="url(#SVGID_5_)" d="M2772.259,579.477c-273.766-160.646-538.223-465.758-811.988-626.404
				c-66.287-38.897-141.882,66.672-208.169,27.775c-33.251-19.512-31.827-10.065-72.461,12.743
				c-99.606,55.91-194.679,118.61-293.429,175.036c-44.092,25.195-91.419,47.226-139.01,64.872
				c-43.43,16.103-71.774,51.035-110.916,70.256c-44.385,21.795-67.047,29.52-109.986,61.887
				c-45.073,33.976-92.102,51.684-138.786,82.113c-29.483,19.217-51.151,39.264-84.912,50.507
				c-41.529,13.83-65.396,43.628-101.28,64.347c-74.583,43.055-154.581,83.976-232.475,120.48
				c-48.993,22.96-86.965,62.637-136.3,85.369c-49.713,22.905-95.459,50.542-143.33,76.857
				c-39.334,21.623-99.635,34.112-143.026,74.076c-38.8,35.736-68.847,62.087-110.918,86.311
				c-7.642,4.4-40.621,32.872-48.826,28.057c340.053,199.543,680.105,399.086,1020.158,598.63
				c35.177,20.642,44.581,2.566,80.96-18.463c91.047-52.63,182.093-105.26,273.14-157.89
				c200.333-115.803,400.666-231.607,600.999-347.41c17.936-10.368,41.669-16.93,59.6-27.307
				C2207.206,915.857,2486.671,745.477,2772.259,579.477z"/>
			<g>
				
					<linearGradient id="SVGID_6_" gradientUnits="userSpaceOnUse" x1="865.4815" y1="517.3071" x2="2129.9292" y2="517.3071" gradientTransform="matrix(1 0 0 -1 0.14 1079.0549)">
					<stop  offset="0" style="stop-color:#8891AF"/>
					<stop  offset="1" style="stop-color:#4673AE"/>
				</linearGradient>
				<path fill="url(#SVGID_6_)" d="M1133.856,292.19c9.027,9.575,97.984,113.715,183.868,180.247s627.656,522.988,712.39,569.601
					l99.955-58.282c0,0-685.602-516.824-726.461-561.503c-40.859-44.679-149.644-148.441-188.718-174.704
					c-23.147-15.558-132.332-70.773-193.808-107.795c-14.876-8.959-24.127-30.013,16.637-53.483
					c-19.669-26.069-211.978,60.148-164.62,105.186c55.59-33.546,142.058,33.868,151.394,35.935s30.586-9.169,63.885,12.282
					C1121.677,261.124,1124.829,282.615,1133.856,292.19z"/>
				<g>
					<path fill="#97A56D" d="M1404.347,422.499c-40.859-44.679-149.644-148.441-188.717-174.704c0,0-32.173-37.282-49.414-46.584
						c-17.24-9.302-32.505,0.173-47.148-8.907S1021.821,140,1021.821,140l193.808,118.306v2.869
						c39.074,26.263,147.858,130.025,188.717,174.704c40.86,44.679,715.327,554.365,715.327,554.365l11.135-6.24
						C2130.809,984.003,1445.207,467.178,1404.347,422.499z"/>
					<path opacity="0.3" fill="#332D16" enable-background="new    " d="M1404.347,422.499
						c-40.859-44.679-149.644-148.441-188.717-174.704c0,0-32.173-37.282-49.414-46.584c-17.24-9.302-32.505,0.173-47.148-8.907
						S1021.821,140,1021.821,140l193.808,118.306v2.869c39.074,26.263,147.858,130.025,188.717,174.704
						c40.86,44.679,715.327,554.365,715.327,554.365l11.135-6.24C2130.809,984.003,1445.207,467.178,1404.347,422.499z"/>
				</g>
				<g>
					<path fill="#9BA865" d="M1141.483,301.077c0,0,44.644,35.301,94.334,96.974c70.12,59.63,294.667,248.097,294.667,248.097
						s433.573,355.523,495.835,399.072l-30.108,17.555c0,0-580.289-467.549-624.213-507.312s-133.574-118.242-149.212-128.457
						s-110.698-113.131-110.698-113.131L1141.483,301.077z"/>
				</g>
			</g>
		</g>
	</g>
</g>
</svg>
